# Blender 4.2.2 LTS
# www.blender.org
mtllib CowpeaFlower_closed_highres.mtl
o petal
v 0.280155 0.055802 0.116141
v 0.280155 0.069712 -0.099156
v 0.280155 -0.055802 0.116141
v 0.280155 -0.069712 -0.099156
v 0.929235 0.011658 0.259503
v 0.929249 -0.011756 0.259503
v 0.457276 0.025224 0.231253
v 0.662526 0.012061 0.383143
v 0.859273 0.006103 0.384075
v 0.280155 -0.110242 0.006496
v 0.280155 0.106245 0.006496
v 0.398913 0.060502 -0.163156
v 0.938963 0.014059 0.199624
v 0.887251 0.032017 -0.021231
v 0.919762 0.026776 -0.007551
v 0.747382 0.034647 -0.176606
v 0.632465 0.052600 -0.174019
v 0.610140 0.045970 -0.192512
v 0.395267 -0.060497 -0.161838
v 0.523427 -0.045077 -0.187830
v 0.636445 -0.052157 -0.175968
v 0.649422 -0.037203 -0.199400
v 0.836724 -0.038543 -0.024370
v 0.886469 -0.032149 -0.021213
v 0.956514 -0.017660 0.086348
v 0.867301 -0.024635 -0.100066
v 0.763099 -0.044965 -0.097796
v 0.792249 -0.030547 -0.151897
v 0.761225 0.040373 -0.159296
v 0.280155 0.012847 -0.126790
v 0.280155 0.000000 -0.136239
v 0.280155 -0.012847 -0.126790
v 0.509397 0.020983 0.263967
v 0.567761 0.016654 0.302334
v 0.319803 0.051712 0.151659
v 0.366147 0.045725 0.181906
v 0.413695 0.037606 0.211788
v 0.280155 -0.101369 0.039818
v 0.280155 -0.092496 0.073138
v 0.280155 -0.083623 0.104783
v 0.631591 -0.014450 0.356794
v 0.280155 0.098235 -0.026826
v 0.280155 0.081578 -0.060147
v 0.280155 0.060818 -0.093469
v 0.414676 -0.037355 0.212103
v 0.366147 -0.045725 0.181906
v 0.319803 -0.051712 0.151659
v 0.773177 0.000000 0.482915
v 0.745347 -0.004928 0.457824
v 0.717516 -0.007199 0.432733
v 0.660687 -0.012237 0.381503
v 0.280155 -0.031946 0.136142
v 0.280155 0.000000 0.148993
v 0.280155 0.031946 0.136142
v 0.717516 0.007199 0.432733
v 0.745347 0.004928 0.457824
v 0.512729 -0.020785 0.266419
v 0.485725 -0.023005 0.248836
v 0.894261 0.009169 0.321760
v 0.911755 0.010251 0.290602
v 0.888682 -0.008789 0.331695
v 0.894261 -0.009169 0.321760
v 0.902306 -0.009435 0.307416
v 0.626876 0.014559 0.352777
v 0.455038 -0.026742 0.230074
v 0.794701 0.004740 0.458205
v 0.816225 0.005407 0.433495
v 0.824333 0.005339 0.424187
v 0.794701 -0.004740 0.458205
v 0.816225 -0.005407 0.433495
v 0.824088 -0.005406 0.424469
v 0.859272 -0.006099 0.384075
v 0.280155 -0.082574 -0.093469
v 0.280155 -0.092495 -0.060147
v 0.280155 -0.101369 -0.026826
v 0.280155 0.079392 0.106461
v 0.280155 0.090320 0.073139
v 0.280155 0.098371 0.039818
v 0.865833 0.033650 -0.042735
v 0.862364 0.034686 -0.031262
v 0.868468 0.034337 -0.021366
v 0.852339 0.033698 -0.063449
v 0.902446 0.029328 -0.015106
v 0.908978 0.028139 -0.036601
v 0.890703 0.031147 -0.045134
v 0.894939 0.024123 -0.069509
v 0.893132 0.028816 -0.060757
v 0.870277 0.029056 -0.084142
v 0.859524 0.031327 -0.075113
v 0.657075 0.053088 -0.152569
v 0.672302 0.052343 -0.151161
v 0.676339 0.050637 -0.178462
v 0.649711 0.037297 -0.199372
v 0.656095 0.046425 -0.194130
v 0.690011 0.045621 -0.189411
v 0.601910 0.035764 -0.199273
v 0.617575 0.047841 -0.187704
v 0.668633 0.050580 -0.184217
v 0.662891 -0.052795 -0.152289
v 0.628446 -0.053063 -0.169682
v 0.657911 -0.051234 -0.181196
v 0.602844 -0.045820 -0.192109
v 0.655060 -0.046599 -0.194036
v 0.669343 -0.050611 -0.183963
v 0.702919 -0.036771 -0.191128
v 0.689899 -0.045616 -0.189450
v 0.748953 -0.034690 -0.176059
v 0.723049 -0.043723 -0.178009
v 0.699693 -0.050042 -0.163727
v 0.895583 -0.024182 -0.068688
v 0.870204 -0.029098 -0.084063
v 0.919753 -0.023477 -0.030820
v 0.909049 -0.028110 -0.036597
v 0.935164 -0.021860 0.006042
v 0.903072 -0.029235 -0.014959
v 0.863860 -0.034851 -0.023557
v 0.859526 -0.034537 -0.038867
v 0.859363 -0.031351 -0.075224
v 0.890617 -0.031186 -0.044950
v 0.763123 -0.040137 -0.158333
v 0.836685 -0.026274 -0.122917
v 0.823193 -0.032780 -0.123890
v 0.794071 -0.036077 -0.142958
v 0.815363 -0.036409 -0.097370
v 0.813555 -0.034649 -0.125361
v 0.780765 -0.041395 -0.109604
v 0.765397 -0.043647 -0.131262
v 0.800229 -0.037829 -0.126898
v 0.852920 0.027787 -0.104871
v 0.837355 0.026263 -0.122434
v 0.822365 0.032666 -0.124719
v 0.831654 0.031678 -0.116958
v 0.792530 0.036404 -0.143623
v 0.768403 0.043205 -0.129831
v 0.800353 0.037835 -0.126818
v 0.766373 0.044000 -0.109284
v 0.781583 0.041257 -0.109536
v 0.799903 0.039013 -0.085385
v 0.815754 0.034322 -0.124062
v 0.594747 -0.057619 -0.157294
v 0.482413 -0.060924 -0.161620
v 0.414066 -0.059680 -0.167510
v 0.433043 -0.057942 -0.172293
v 0.457857 -0.055066 -0.176791
v 0.598845 -0.053387 -0.176400
v 0.487563 -0.050822 -0.181485
v 0.577722 -0.035355 -0.196106
v 0.602096 -0.035776 -0.199242
v 0.427204 0.058399 -0.171203
v 0.529128 0.044199 -0.188767
v 0.582673 0.035357 -0.196802
v 0.476341 0.060951 -0.162041
v 0.597876 0.057770 -0.156573
v 0.601323 0.053953 -0.175082
v 0.461053 0.054429 -0.177142
v 0.702775 0.036700 -0.191163
v 0.712018 -0.050636 -0.122636
v 0.687474 -0.051771 -0.142689
v 0.729019 -0.047771 -0.149456
v 0.738433 -0.042618 -0.170358
v 0.786639 0.041643 -0.077884
v 0.813470 0.037827 -0.068270
v 0.816668 0.042598 -0.007434
v 0.834354 0.034483 -0.081772
v 0.814954 0.036478 -0.097324
v 0.851041 0.029995 -0.100740
v 0.919555 0.023529 -0.031209
v 0.868687 0.024656 -0.098627
v 0.938150 -0.013943 0.204769
v 0.912429 -0.021897 0.115640
v 0.891094 -0.027413 0.087428
v 0.868699 -0.034514 0.030555
v 0.900136 -0.029391 0.019723
v 0.923553 -0.023316 0.061732
v 0.933048 -0.020917 0.103729
v 0.948992 -0.019098 0.132541
v 0.929896 -0.024285 0.027558
v 0.944825 -0.020399 0.073295
v 0.953892 -0.019661 0.101501
v 0.949352 -0.018325 0.060588
v 0.868699 0.034514 0.030555
v 0.891094 0.027413 0.087428
v 0.914529 0.019794 0.143759
v 0.942053 0.015526 0.178968
v 0.928320 0.021072 0.108839
v 0.913015 0.025081 0.059485
v 0.901603 0.029079 0.019900
v 0.948262 0.019029 0.137741
v 0.953901 0.019766 0.101791
v 0.944577 0.020506 0.073031
v 0.936602 0.022361 0.048351
v 0.928848 0.024632 0.023017
v 0.956534 0.017615 0.086436
v 0.951386 0.018014 0.068005
v 0.935049 0.021890 0.005860
v 0.801419 -0.039593 -0.068235
v 0.842039 -0.033815 -0.075758
v 0.848090 -0.030127 -0.103230
v 0.695546 0.050980 -0.145794
v 0.711494 0.050370 -0.128226
v 0.733180 0.048100 -0.121704
v 0.733731 0.047343 -0.146587
v 0.699736 0.050071 -0.163603
v 0.724083 0.043763 -0.177455
v 0.752565 0.034478 -0.174063
v 0.333420 0.064698 -0.140692
v 0.304957 0.054012 -0.132355
v 0.933536 0.012640 0.234364
v 0.934285 0.012754 0.229510
v 0.936660 0.013299 0.214558
v 0.333420 -0.064698 -0.140692
v 0.304957 -0.054012 -0.132355
v 0.931820 -0.012283 0.244489
v 0.409225 -0.000000 0.209770
v 0.327369 -0.000130 0.160975
v 0.319391 0.022995 0.153114
v 0.319391 -0.022995 0.153114
v 0.731431 -0.000142 0.445278
v 0.632062 0.055942 0.130082
v 0.386926 0.072108 -0.062717
v 0.483724 0.069788 0.033204
v 0.370188 0.085350 0.033167
v 0.482883 0.068592 0.103557
v 0.394010 0.065533 0.137981
v 0.514173 0.051894 0.160020
v 0.495100 0.037149 0.207791
v 0.570011 0.039201 0.199341
v 0.579645 0.026245 0.263649
v 0.622133 0.037539 0.237596
v 0.656906 0.024855 0.326622
v 0.674886 0.039719 0.275979
v 0.737530 0.015694 0.374830
v 0.724103 0.046868 0.274326
v 0.804877 0.017718 0.321215
v 0.761568 0.059497 0.225020
v 0.852676 0.022776 0.237391
v 0.778536 0.064164 0.176611
v 0.854109 0.034220 0.162058
v 0.758734 0.063324 0.108354
v 0.797675 0.048178 0.030469
v 0.716491 0.057311 0.039988
v 0.730858 0.050862 -0.040683
v 0.666241 0.057557 0.006444
v 0.633901 0.056876 -0.079917
v 0.584986 0.058370 -0.011174
v 0.485391 0.061405 -0.093214
v 0.509666 0.061884 -0.008123
v 0.933809 -0.012085 0.233007
v 0.304927 0.014811 -0.132338
v 0.333317 0.021209 -0.133915
v 0.363976 0.029466 -0.151041
v 0.304917 0.000000 -0.132332
v 0.333283 0.000000 -0.140606
v 0.363913 0.000000 -0.151001
v 0.304927 -0.014811 -0.132338
v 0.333317 -0.021209 -0.133915
v 0.363976 -0.029466 -0.151041
v 0.566218 -0.016662 0.301153
v 0.486278 -0.000000 0.249196
v 0.632062 -0.056218 0.130082
v 0.485399 -0.061480 -0.093214
v 0.584986 -0.058554 -0.011174
v 0.633901 -0.056190 -0.079917
v 0.666241 -0.056843 0.006444
v 0.730858 -0.049277 -0.040683
v 0.716491 -0.056530 0.039988
v 0.797675 -0.047049 0.030412
v 0.758734 -0.063227 0.108354
v 0.854360 -0.050461 0.161908
v 0.778536 -0.068744 0.176611
v 0.852676 -0.032235 0.237379
v 0.761568 -0.061488 0.225020
v 0.804877 -0.019468 0.321215
v 0.724103 -0.047229 0.274326
v 0.737530 -0.016195 0.374830
v 0.674886 -0.039778 0.275979
v 0.656906 -0.024905 0.326622
v 0.622133 -0.037666 0.237596
v 0.579645 -0.026320 0.263649
v 0.570011 -0.039384 0.199341
v 0.495100 -0.037225 0.207791
v 0.514173 -0.052135 0.160020
v 0.393450 -0.067701 0.136736
v 0.482883 -0.069589 0.103557
v 0.370253 -0.087432 0.033173
v 0.483749 -0.070786 0.033204
v 0.387051 -0.072636 -0.062746
v 0.509666 -0.062125 -0.008123
v 0.888597 0.008754 0.331847
v 0.693851 -0.047276 -0.181124
v 0.919223 -0.026867 -0.009624
v 0.873041 -0.032527 -0.051858
v 0.893489 -0.028761 -0.060443
v 0.854905 -0.027704 -0.103263
v 0.835335 -0.031301 -0.113969
v 0.788797 -0.039644 -0.128157
v 0.792946 0.030553 -0.151470
v 0.530977 -0.057937 -0.165156
v 0.595219 -0.055209 -0.168774
v 0.504345 -0.056340 -0.172061
v 0.582730 -0.050939 -0.181474
v 0.568521 -0.047484 -0.186951
v 0.575597 -0.039637 -0.194169
v 0.555882 0.056807 -0.166376
v 0.602253 0.055670 -0.165710
v 0.531342 0.055265 -0.173266
v 0.553898 0.049796 -0.183128
v 0.562799 0.046564 -0.188105
v 0.597913 0.041356 -0.194937
v 0.837234 0.035410 -0.057294
v 0.840736 0.032313 -0.091945
v 0.904763 -0.025046 0.079030
v 0.884174 -0.031677 0.022105
v 0.924376 -0.020933 0.113911
v 0.912962 -0.027045 0.019596
v 0.887803 0.030865 0.025133
v 0.906976 0.023295 0.106720
v 0.921288 0.020029 0.131441
v 0.926998 0.023127 0.053960
v 0.935722 0.020539 0.102332
v 0.834618 -0.036078 -0.052904
v 0.811174 -0.037594 -0.076294
s 0
usemtl Material
f 48 56 218
f 55 8 218
f 51 50 218
f 48 218 49
f 114 195 180
f 195 194 180
f 68 72 9
f 66 71 67
f 66 48 71
f 71 48 69
f 71 69 70
f 2 220 207
f 8 230 64
f 163 240 181
f 12 246 152
f 169 179 248
f 179 169 176
f 13 248 184
f 12 19 251
f 251 19 254
f 19 257 254
f 64 34 258
f 65 58 259
f 259 258 34
f 274 272 273
f 72 61 289
f 5 63 6
f 79 85 82
f 83 84 85
f 167 84 195
f 167 87 84
f 88 87 86
f 88 86 168
f 82 87 89
f 85 84 87
f 203 204 92
f 92 95 98
f 156 95 16
f 93 94 95
f 18 94 96
f 94 93 96
f 17 98 97
f 98 95 94
f 100 101 104
f 99 104 109
f 102 103 101
f 101 103 104
f 22 103 148
f 290 106 108
f 106 104 103
f 293 111 110
f 110 111 26
f 291 113 114
f 113 112 114
f 24 113 115
f 117 116 23
f 292 119 24
f 292 293 119
f 118 111 292
f 28 123 107
f 123 120 107
f 121 122 123
f 128 125 122
f 124 122 295
f 127 126 27
f 127 296 126
f 126 296 128
f 296 123 128
f 125 128 123
f 125 123 122
f 130 129 168
f 29 133 205
f 133 297 205
f 134 133 29
f 134 135 133
f 137 135 134
f 165 132 139
f 311 166 132
f 165 139 135
f 133 139 131
f 140 298 299
f 140 141 298
f 300 144 145
f 302 20 102
f 301 102 21
f 20 147 303
f 303 147 148
f 303 148 102
f 142 149 143
f 143 149 144
f 144 155 146
f 150 147 20
f 304 306 152
f 152 149 12
f 153 90 305
f 154 155 306
f 306 155 149
f 18 150 308
f 307 150 155
f 18 309 150
f 156 22 93
f 157 158 159
f 158 99 109
f 214 65 7 37
f 159 109 160
f 160 107 120
f 160 108 107
f 162 310 164
f 162 138 161
f 163 80 310
f 311 89 166
f 164 311 165
f 164 82 311
f 311 132 165
f 88 168 129
f 88 129 166
f 312 314 170
f 313 116 173
f 173 174 312
f 314 176 169
f 174 178 175
f 315 115 177
f 177 114 180
f 177 291 114
f 178 25 179
f 318 184 185
f 316 186 187
f 316 81 80
f 187 319 192
f 187 83 14
f 185 188 320
f 319 190 191
f 192 15 83
f 191 195 192
f 190 193 194
f 191 194 195
f 322 197 321
f 197 118 292
f 124 295 198
f 198 111 118
f 199 91 90
f 199 203 91
f 202 204 203
f 202 29 204
f 205 16 204
f 130 121 297
f 297 107 205
f 28 107 297
f 147 96 148
f 215 45 214
f 215 217 45
f 215 214 37 36
f 216 215 36 35
f 54 216 35 1
f 53 215 216 54
f 217 215 53 52
f 47 217 52 3
f 46 45 217 47
f 247 220 221 219
f 214 45 65
f 218 8 51
f 56 55 218
f 218 50 49
f 180 194 193
f 180 193 25
f 67 71 68
f 68 71 72
f 221 222 223 219
f 223 224 225 219
f 225 226 227 219
f 227 228 229 219
f 229 230 231 219
f 231 232 233 219
f 233 234 235 219
f 235 236 237 219
f 237 238 239 219
f 239 240 241 219
f 241 242 243 219
f 243 244 245 219
f 245 246 247 219
f 220 44 43 221
f 2 44 220
f 247 206 207 220
f 42 11 78 222
f 222 78 77 223
f 43 42 222 221
f 224 76 1 35
f 224 35 36 225
f 77 76 224 223
f 226 37 7 33
f 225 36 37 226
f 33 227 226
f 33 34 228 227
f 34 64 228
f 64 229 228
f 230 8 55 231
f 56 48 66 232
f 230 229 64
f 232 66 67 233
f 55 56 232 231
f 234 68 9 289
f 234 289 59 235
f 67 68 234 233
f 236 60 5 208
f 236 208 209 237
f 59 60 236 235
f 238 210 13 183
f 238 183 182 239
f 209 210 238 237
f 240 163 162 241
f 182 181 240 239
f 242 161 136 201
f 242 201 200 243
f 162 161 242 241
f 244 199 90 153
f 200 199 244 243
f 153 245 244
f 246 12 206 247
f 153 152 246 245
f 5 6 213 248
f 16 205 107
f 179 188 248
f 189 188 179
f 193 179 25
f 193 189 179
f 13 210 248
f 210 209 248
f 184 248 188
f 5 248 208
f 208 248 209
f 253 252 249 250
f 254 253 250 251
f 255 252 253 256
f 256 253 254 257
f 30 2 207 249
f 250 249 207 206
f 251 250 206 12
f 211 256 257 19
f 212 255 256 211
f 212 4 32 255
f 32 31 252 255
f 252 31 30 249
f 51 8 258 41
f 65 259 33 7
f 8 64 258
f 34 33 259
f 288 261 262 260
f 259 58 57
f 259 57 258
f 262 263 264 260
f 264 265 266 260
f 266 267 268 260
f 268 269 270 260
f 270 271 272 260
f 274 275 276 260
f 274 260 272
f 276 277 278 260
f 278 279 280 260
f 280 281 282 260
f 282 283 284 260
f 284 285 286 260
f 286 287 288 260
f 261 141 140 262
f 19 141 261
f 211 19 261 288
f 263 140 99 158
f 263 158 157 264
f 157 27 265 264
f 263 262 140
f 27 196 265
f 196 266 265
f 267 172 171 268
f 23 172 267
f 196 23 267 266
f 269 170 169 248
f 171 170 269 268
f 248 270 269
f 271 213 6 63
f 271 63 62 272
f 248 213 271 270
f 273 61 72 71
f 273 71 70 274
f 62 61 273 272
f 69 48 49 275
f 275 49 50 276
f 70 69 275 274
f 50 51 277 276
f 51 41 277
f 41 278 277
f 279 258 57 280
f 41 258 279 278
f 281 58 65 45
f 282 281 45 46
f 57 58 281 280
f 283 47 3 40
f 283 40 39 284
f 46 47 283 282
f 38 10 75 285
f 285 75 74 286
f 39 38 285 284
f 287 73 4 212
f 288 287 212 211
f 74 73 287 286
f 63 60 59 289
f 289 61 63
f 60 63 5
f 98 17 90 92
f 9 72 289
f 63 61 62
f 80 14 79
f 81 14 80
f 79 14 85
f 83 15 84
f 14 83 85
f 195 84 15
f 167 86 87
f 89 87 88
f 82 85 87
f 105 107 108 106
f 90 91 92
f 91 203 92
f 92 204 95
f 16 95 204
f 93 95 156
f 309 18 96
f 97 98 18
f 18 98 94
f 99 100 104
f 100 21 101
f 21 102 101
f 148 103 102
f 22 105 106
f 22 106 103
f 132 129 130 131
f 109 290 108
f 109 104 290
f 290 104 106
f 110 113 293
f 110 112 113
f 115 113 291
f 24 119 113
f 116 292 24
f 117 292 116
f 292 111 293
f 293 113 119
f 28 121 123
f 26 294 121
f 295 122 121
f 294 295 121
f 124 128 122
f 127 120 296
f 296 120 123
f 129 132 166
f 143 300 141 142
f 297 133 131
f 130 297 131
f 137 138 135
f 138 165 135
f 136 137 134
f 139 132 131
f 135 139 133
f 298 141 300
f 299 298 300
f 141 19 142
f 21 100 299 145
f 300 143 144
f 299 300 145
f 100 99 140 299
f 146 301 145 144
f 301 146 302
f 145 301 21
f 149 142 19 12
f 302 146 20
f 301 302 102
f 102 20 303
f 306 304 305 154
f 144 149 155
f 146 155 150
f 146 150 20
f 147 150 151
f 17 154 305 90
f 153 304 152
f 153 305 304
f 308 307 97 18
f 152 306 149
f 307 155 154 97
f 127 27 157 159
f 154 17 97
f 307 308 150
f 309 96 151
f 309 151 150
f 107 105 156
f 16 107 156
f 105 22 156
f 93 148 96
f 93 22 148
f 159 158 109
f 165 138 162 164
f 159 160 120
f 160 109 108
f 159 120 127
f 137 136 161 138
f 168 86 110 26
f 162 163 310
f 310 80 79
f 310 79 82
f 164 310 82
f 311 82 89
f 166 89 88
f 114 112 167
f 195 114 167
f 167 112 110
f 167 110 86
f 312 171 172 313
f 313 173 312
f 171 312 170
f 116 313 172 23
f 175 314 312 174
f 173 116 24
f 115 315 173 24
f 314 175 176
f 170 314 169
f 315 177 174
f 174 173 315
f 179 176 175 178
f 177 115 291
f 174 177 178
f 185 186 317 318
f 177 180 178
f 178 180 25
f 316 317 186
f 80 163 181 316
f 317 316 181 182
f 318 317 182 183
f 184 318 183 13
f 14 81 316 187
f 185 184 188
f 320 319 186 185
f 319 320 190
f 186 319 187
f 189 190 320 188
f 321 23 196 322
f 192 319 191
f 187 192 83
f 191 190 194
f 192 195 15
f 190 189 193
f 23 321 117
f 126 322 196 27
f 292 117 321 197
f 322 126 128
f 322 128 124
f 197 322 124
f 134 202 201 136
f 197 198 118
f 197 124 198
f 111 294 26
f 111 198 294
f 198 295 294
f 203 199 200 202
f 200 201 202
f 202 134 29
f 29 205 204
f 26 121 168
f 130 168 121
f 121 28 297
f 147 151 96
o sepal
v 0.134261 0.102469 0.004839
v 0.281664 0.111460 0.004839
v 0.134261 0.082899 -0.076217
v 0.401626 0.115498 -0.053273
v 0.134261 0.031665 -0.126312
v 0.292893 0.034443 -0.137819
v 0.134261 -0.031665 -0.126312
v 0.417269 -0.063866 -0.178775
v 0.134261 -0.082899 -0.076217
v 0.278936 -0.090173 -0.083329
v 0.134261 -0.102469 0.004839
v 0.418537 -0.111460 0.004839
v 0.134261 -0.082899 0.085895
v 0.278936 -0.090173 0.093007
v 0.134261 -0.031665 0.135990
v 0.362989 -0.034443 0.190587
v 0.134261 0.031665 0.135990
v 0.278936 0.034443 0.147497
v 0.134261 0.082899 0.085895
v 0.383806 0.106229 0.120413
v 0.067666 0.080758 0.004839
v 0.067666 0.065334 -0.059042
v 0.067666 0.024955 -0.098523
v 0.067666 -0.024955 -0.098523
v 0.067666 -0.065334 -0.059042
v 0.067666 -0.080758 0.004839
v 0.067666 -0.065334 0.068720
v 0.067666 -0.024955 0.108201
v 0.067666 0.024955 0.108201
v 0.067666 0.065334 0.068720
v 0.024636 0.036847 0.004839
v 0.024636 0.029810 -0.024308
v 0.024636 0.011386 -0.042321
v 0.024636 -0.011386 -0.042321
v 0.024636 -0.029810 -0.024308
v 0.024636 -0.036847 0.004839
v 0.024636 -0.029810 0.033986
v 0.024636 -0.011386 0.051999
v 0.024636 0.011386 0.051999
v 0.024636 0.029810 0.033986
v 0.216585 0.034443 0.147497
v 0.216585 -0.034443 0.147497
v 0.216585 -0.090173 0.093007
v 0.216585 -0.111460 0.004839
v 0.216585 -0.090173 -0.083329
v 0.216585 -0.034443 -0.137819
v 0.003123 -0.000000 0.004839
v 0.216586 0.034443 -0.137819
v 0.252291 0.090173 -0.083329
v 0.216585 0.111460 0.004839
v 0.216585 0.090173 0.093007
s 0
usemtl Material.001
f 372 324 326 371
f 371 326 328 370
f 370 328 330 368
f 368 330 332 367
f 367 332 334 366
f 366 334 336 365
f 365 336 338 364
f 364 338 340 363
f 363 340 342 373
f 373 342 324 372
f 333 335 349 348
f 331 333 348 347
f 329 331 347 346
f 323 325 344 343
f 327 329 346 345
f 325 327 345 344
f 341 323 343 352
f 339 341 352 351
f 337 339 351 350
f 335 337 350 349
f 346 347 357 356
f 343 344 354 353
f 350 351 361 360
f 347 348 358 357
f 344 345 355 354
f 351 352 362 361
f 348 349 359 358
f 345 346 356 355
f 352 343 353 362
f 349 350 360 359
f 353 354 369
f 360 361 369
f 357 358 369
f 354 355 369
f 361 362 369
f 358 359 369
f 355 356 369
f 362 353 369
f 359 360 369
f 356 357 369
f 341 373 372 323
f 339 363 373 341
f 337 364 363 339
f 335 365 364 337
f 333 366 365 335
f 331 367 366 333
f 329 368 367 331
f 327 370 368 329
f 325 371 370 327
f 323 372 371 325
