# Blender 4.2.2 LTS
# www.blender.org
mtllib CowpeaFlower_open_highres.mtl
o petal
v 0.273381 0.422461 0.659347
v 0.355101 0.452885 0.126377
v 0.370047 -0.569336 0.419573
v 0.362178 -0.548856 0.264060
v 0.381057 0.532779 0.250027
v 0.394530 0.552938 0.406962
v 0.356376 0.508996 0.554611
v 0.178716 0.309039 0.728558
v 0.144456 0.168322 0.741578
v 0.176663 -0.026010 0.702387
v 0.174524 -0.199454 0.753864
v 0.196891 -0.347229 0.739536
v 0.347170 -0.359746 0.052424
v 0.336026 -0.210633 0.003931
v 0.277461 0.003918 0.045832
v 0.337897 0.215973 0.017151
v 0.346959 0.347623 0.060345
v 0.250856 -0.193155 0.605659
v 0.273540 0.252329 0.540335
v 0.369060 -0.370065 0.409755
v 0.384851 -0.176034 0.222957
v 0.284799 0.001784 0.245677
v 0.411191 0.434730 0.245555
v 0.175177 -0.118243 0.737814
v 0.299024 -0.074018 0.029278
v 0.306225 -0.044698 0.437717
v 0.333622 -0.082065 0.225221
v 0.166749 0.063566 0.724053
v 0.322876 0.135024 0.021623
v 0.213417 -0.382505 0.729041
v 0.361765 -0.535005 0.226131
v 0.360157 -0.517949 0.191057
v 0.357999 -0.498021 0.159309
v 0.348701 0.377044 0.074105
v 0.350566 0.403930 0.088840
v 0.352695 0.428974 0.105884
v 0.339625 0.490331 0.584703
v 0.320611 0.469381 0.611689
v 0.298732 0.446810 0.636138
v 0.357979 -0.559523 0.496347
v 0.366004 -0.565943 0.458471
v 0.368170 -0.569400 0.380436
v 0.357166 -0.566040 0.342164
v 0.360674 -0.559207 0.302503
v 0.355625 0.472271 0.148113
v 0.360546 0.497712 0.181747
v 0.363034 0.516964 0.215314
v 0.390413 0.544340 0.288279
v 0.395057 0.551521 0.327200
v 0.396379 0.554371 0.366912
v 0.389477 0.547327 0.446576
v 0.381229 0.537870 0.484962
v 0.370477 0.524967 0.521157
v 0.329186 0.413046 0.544285
v 0.397468 0.503080 0.413932
v 0.397540 0.483681 0.225913
v 0.248192 0.396590 0.680957
v 0.225441 0.370091 0.699647
v 0.200448 0.340949 0.716094
v 0.164119 0.274184 0.735992
v 0.149399 0.237857 0.739623
v 0.140602 0.201942 0.739225
v 0.167107 0.019504 0.709220
v 0.169282 -0.004672 0.703649
v 0.173562 -0.146343 0.747403
v 0.175356 -0.170734 0.751916
v 0.168696 -0.233274 0.753050
v 0.168496 -0.270618 0.747967
v 0.179154 -0.309324 0.746086
v 0.352887 -0.450897 0.107782
v 0.350392 -0.423654 0.087462
v 0.348110 -0.393473 0.069439
v 0.343872 -0.323124 0.036529
v 0.341541 -0.284595 0.022076
v 0.338747 -0.246405 0.010748
v 0.287697 -0.047785 0.037459
v 0.280206 -0.022065 0.043189
v 0.329268 0.160491 0.017072
v 0.334210 0.187062 0.015199
v 0.340798 0.247877 0.023686
v 0.343169 0.281566 0.033983
v 0.345172 0.315372 0.046673
v 0.316815 -0.525435 0.598266
v 0.274261 -0.410559 0.601070
v 0.273472 -0.065031 0.527491
v 0.234907 -0.039108 0.598116
v 0.261118 0.144201 0.531801
v 0.273456 0.306569 0.564577
v 0.379651 -0.516364 0.414713
v 0.385921 -0.404743 0.372320
v 0.357343 -0.182581 0.412870
v 0.356288 0.170106 0.388523
v 0.358432 -0.505409 0.258479
v 0.386968 -0.461763 0.248767
v 0.395327 -0.417328 0.243180
v 0.398997 -0.271194 0.219688
v 0.293008 -0.032860 0.250153
v 0.381680 0.135662 0.224884
v 0.401930 0.199753 0.218787
v 0.412067 0.302928 0.226676
v 0.399236 -0.417754 0.286341
v 0.394711 -0.194192 0.266736
v 0.390051 -0.192297 0.314047
v 0.380475 -0.215322 0.361221
v 0.303127 0.002754 0.290584
v 0.301764 0.005348 0.331458
v 0.290133 -0.001264 0.390178
v 0.392699 0.204877 0.308778
v 0.407212 0.404313 0.329514
v 0.339820 -0.401831 0.481456
v 0.276855 -0.347224 0.565348
v 0.324074 -0.158783 0.473644
v 0.275670 -0.149272 0.550793
v 0.259831 -0.003388 0.476726
v 0.219487 -0.013976 0.575192
v 0.339176 0.350075 0.482305
v 0.228152 -0.334148 0.667972
v 0.207951 -0.194197 0.700506
v 0.172800 -0.012990 0.648508
v 0.177017 -0.026617 0.676526
v 0.184070 0.153257 0.665331
v 0.142563 0.185992 0.707716
v 0.208609 0.304010 0.691323
v 0.386436 -0.349395 0.191098
v 0.345137 -0.182413 0.117300
v 0.365453 -0.205443 0.171453
v 0.287529 0.003235 0.141331
v 0.288350 0.015182 0.197740
v 0.345411 0.217524 0.072823
v 0.397078 0.213311 0.172510
v 0.390235 0.404216 0.159030
v 0.403691 0.424507 0.200297
v 0.178300 -0.046514 0.705652
v 0.173501 -0.068878 0.713423
v 0.331015 -0.178605 0.002881
v 0.325287 -0.149946 0.006339
v 0.317971 -0.123462 0.012892
v 0.249260 -0.135868 0.597770
v 0.336247 -0.127793 0.438061
v 0.371805 -0.140162 0.224723
v 0.330773 -0.116029 0.180867
v 0.203284 -0.125648 0.702799
v 0.368244 -0.113753 0.274552
v 0.329532 -0.047427 0.339018
v 0.322197 -0.046272 0.384679
v 0.153106 0.138398 0.740323
v 0.161225 0.111640 0.736513
v 0.165257 0.087034 0.731018
v 0.281614 0.030513 0.044621
v 0.294318 0.064209 0.038990
v 0.178158 0.006944 0.591354
v 0.174855 0.030643 0.592017
v 0.226169 0.048950 0.545971
v 0.298110 0.032908 0.395033
v 0.311142 0.026712 0.241509
v 0.350235 0.080667 0.232147
v 0.327845 0.117005 0.132727
v 0.378131 0.142733 0.180514
v 0.185248 0.074535 0.627735
v 0.165630 0.043857 0.647220
v 0.164350 0.090342 0.683930
v 0.312543 0.102748 0.432077
v 0.366060 0.121120 0.316666
v 0.351617 0.121202 0.362366
v 0.355212 0.427493 0.130667
v 0.274450 0.362024 0.599937
v 0.372291 0.361107 0.419973
v 0.411298 0.458731 0.301573
v 0.405933 0.510540 0.339084
v 0.405269 0.500948 0.284463
v 0.386888 -0.520158 0.360407
v 0.382584 -0.513196 0.294786
v 0.393183 -0.471017 0.340562
v 0.393998 -0.467123 0.288601
v 0.396494 -0.302927 0.316936
v 0.402247 -0.302637 0.271293
v 0.323335 -0.041240 0.296057
v 0.307612 -0.019944 0.351796
v 0.302263 -0.022785 0.288735
v 0.390687 0.159693 0.267465
v 0.391785 0.369410 0.374571
v 0.411365 0.305847 0.267159
v 0.347236 -0.550386 0.532625
v 0.332952 -0.539148 0.566354
v 0.341483 -0.307807 0.454847
v 0.280822 -0.271043 0.545248
v 0.277971 -0.038682 0.501844
v 0.311008 0.140359 0.456448
v 0.336444 0.271176 0.453804
v 0.258946 -0.468989 0.677101
v 0.279297 -0.490852 0.653191
v 0.299433 -0.509522 0.626901
v 0.241620 -0.443521 0.697663
v 0.227243 -0.414593 0.715133
v 0.183949 -0.268372 0.712263
v 0.226481 -0.270641 0.655529
v 0.182461 -0.063436 0.687591
v 0.204006 -0.045305 0.649182
v 0.228624 -0.073271 0.614231
v 0.167193 0.104434 0.669361
v 0.204272 0.116722 0.628539
v 0.153159 0.142778 0.705025
v 0.206425 0.209623 0.648497
v 0.167696 0.245463 0.702885
v 0.215160 0.264538 0.656608
v 0.358224 -0.463809 0.212730
v 0.355567 -0.475700 0.131289
v 0.356661 -0.430960 0.165617
v 0.378254 -0.413036 0.201002
v 0.351415 -0.250729 0.121777
v 0.376115 -0.261838 0.166698
v 0.304925 -0.057423 0.194353
v 0.293370 -0.026840 0.169154
v 0.338619 0.154264 0.126320
v 0.338610 0.169777 0.071947
v 0.358815 0.180950 0.122833
v 0.380393 0.244977 0.125615
v 0.406077 0.296369 0.179879
v 0.389779 0.305917 0.137026
v 0.349583 0.287203 0.085815
v 0.344610 -0.173025 0.173428
v 0.206364 -0.157892 0.709389
v 0.366842 -0.141012 0.366122
v 0.372011 -0.128436 0.320269
v 0.295182 0.041277 0.150771
v 0.309824 0.052930 0.193402
v 0.335468 0.078182 0.187765
v 0.167471 0.046589 0.628822
v 0.206996 0.010900 0.551853
v 0.254123 0.015194 0.480474
v 0.350917 0.081143 0.274832
v 0.314277 -0.006736 0.113723
v 0.609727 -0.097716 -0.085175
v 0.327042 -0.111814 0.086380
v 0.345123 -0.209914 0.049710
v 0.423920 -0.352781 -0.112720
v 0.519428 -0.378405 -0.244913
v 0.614258 -0.308494 -0.271564
v 0.644369 -0.237448 -0.214604
v 0.638094 -0.151772 -0.139080
v 0.562871 -0.061121 -0.025386
v 0.486817 -0.033523 0.037589
v 0.487490 -0.296858 -0.194169
v 0.290918 -0.022234 0.117766
v 0.303065 -0.044418 0.109245
v 0.310136 -0.070495 0.100791
v 0.349166 -0.242107 0.032730
v 0.367858 -0.298023 -0.011455
v 0.383111 -0.319840 -0.040751
v 0.400064 -0.335467 -0.070238
v 0.446334 -0.366680 -0.149363
v 0.468695 -0.376188 -0.182576
v 0.493813 -0.380321 -0.215997
v 0.536768 -0.373099 -0.260624
v 0.548963 -0.367295 -0.269916
v 0.574224 -0.349501 -0.283911
v 0.594490 -0.331321 -0.286503
v 0.625284 -0.292063 -0.259290
v 0.634299 -0.273619 -0.246578
v 0.640331 -0.256377 -0.230543
v 0.646200 -0.217745 -0.197913
v 0.645948 -0.198437 -0.180977
v 0.643904 -0.179291 -0.164126
v 0.629730 -0.129419 -0.117974
v 0.622208 -0.115338 -0.103383
v 0.593947 -0.082107 -0.062472
v 0.581123 -0.072124 -0.046528
v 0.533219 -0.048138 0.005492
v 0.400985 -0.009180 0.072397
v 0.373946 -0.004429 0.084690
v 0.350068 -0.001587 0.096538
v 0.329978 -0.000998 0.107229
v 0.522949 -0.298696 -0.239133
v 0.385690 -0.275362 -0.009208
v 0.412773 -0.217880 0.024503
v 0.495578 -0.271763 -0.191010
v 0.538668 -0.276453 -0.238742
v 0.501703 -0.239552 -0.163557
v 0.521444 -0.241772 -0.196100
v 0.427313 -0.166405 0.052797
v 0.428723 -0.138105 0.063039
v 0.443690 -0.246527 -0.049861
v 0.484359 -0.168781 0.001589
v 0.571944 -0.160327 -0.122449
v 0.458999 -0.131582 0.052001
v 0.548719 -0.124735 -0.049761
v 0.397436 -0.316964 -0.056616
v 0.425022 -0.315012 -0.098208
v 0.531114 -0.336679 -0.256719
v 0.565391 -0.310246 -0.274135
v 0.555678 -0.230381 -0.207090
v 0.598875 -0.157314 -0.134103
v 0.556604 -0.089375 -0.032147
v 0.584849 -0.125751 -0.091305
v 0.487701 -0.091638 0.039701
v 0.392580 -0.055580 0.076211
v 0.431069 -0.102207 0.068159
v 0.355433 -0.098839 0.081658
v 0.410403 -0.269114 -0.029537
v 0.429352 -0.284427 -0.077796
v 0.447108 -0.184453 0.029340
v 0.542051 -0.156920 -0.083359
v 0.506879 -0.328613 -0.229368
v 0.561470 -0.359468 -0.277920
v 0.552143 -0.333099 -0.273329
v 0.578383 -0.324456 -0.286841
v 0.558757 -0.280519 -0.251995
v 0.581764 -0.269130 -0.248640
v 0.486523 -0.124667 0.032570
v 0.462427 -0.088057 0.055296
v 0.355871 -0.059797 0.086242
v 0.342330 -0.172038 0.064901
v 0.337860 -0.147690 0.073878
v 0.359002 -0.279274 0.005927
v 0.354220 -0.264811 0.016884
v 0.314631 0.006020 0.111821
v 0.608256 0.097038 -0.095018
v 0.327491 0.111166 0.084750
v 0.354722 0.263684 0.016239
v 0.419378 0.349044 -0.111034
v 0.456600 0.364798 -0.172929
v 0.610301 0.293214 -0.271374
v 0.642389 0.230181 -0.218690
v 0.636607 0.151332 -0.149385
v 0.566518 0.062929 -0.036747
v 0.481493 0.285818 -0.193372
v 0.291267 0.021519 0.115846
v 0.303421 0.043703 0.107353
v 0.310510 0.069780 0.098975
v 0.368629 0.298536 -0.014454
v 0.382939 0.320423 -0.042588
v 0.398640 0.335513 -0.073353
v 0.440897 0.359975 -0.148371
v 0.474259 0.366993 -0.198126
v 0.499149 0.364629 -0.229584
v 0.523939 0.357359 -0.254537
v 0.542257 0.348438 -0.268591
v 0.560972 0.336802 -0.279403
v 0.589620 0.313782 -0.285811
v 0.621946 0.278613 -0.259657
v 0.631569 0.262068 -0.247866
v 0.637993 0.247041 -0.233134
v 0.644483 0.212314 -0.203638
v 0.643866 0.187024 -0.181574
v 0.624776 0.121570 -0.121342
v 0.592637 0.081359 -0.071606
v 0.580420 0.071693 -0.054636
v 0.545094 0.052302 -0.011892
v 0.504754 0.038145 0.023343
v 0.465241 0.026221 0.045542
v 0.399170 0.008065 0.070508
v 0.373832 0.003658 0.083239
v 0.350424 0.000872 0.094648
v 0.330330 0.000283 0.105324
v 0.518569 0.290084 -0.242631
v 0.386593 0.275428 -0.011728
v 0.411960 0.218155 0.022306
v 0.489566 0.262411 -0.190847
v 0.533557 0.262614 -0.239051
v 0.543647 0.222514 -0.207210
v 0.496521 0.236691 -0.169988
v 0.523062 0.224997 -0.193084
v 0.420778 0.169107 0.050749
v 0.444125 0.243097 -0.049544
v 0.481857 0.169910 -0.004238
v 0.560711 0.158468 -0.124266
v 0.440592 0.127829 0.058140
v 0.529923 0.124596 -0.034377
v 0.410922 0.315099 -0.079043
v 0.524153 0.319037 -0.255258
v 0.559881 0.293119 -0.273284
v 0.565786 0.225455 -0.218587
v 0.597864 0.132333 -0.119820
v 0.564973 0.121716 -0.079940
v 0.376915 0.046707 0.078722
v 0.427114 0.090885 0.065955
v 0.415734 0.122794 0.066811
v 0.345401 0.207340 0.049031
v 0.349459 0.241455 0.030493
v 0.411266 0.268937 -0.032147
v 0.428086 0.282994 -0.079132
v 0.513400 0.259560 -0.219657
v 0.446134 0.184493 0.026045
v 0.448139 0.151450 0.046488
v 0.521035 0.167886 -0.076827
v 0.496443 0.315180 -0.223901
v 0.545849 0.314841 -0.272136
v 0.573210 0.306817 -0.286145
v 0.553998 0.265994 -0.252278
v 0.577999 0.256585 -0.250190
v 0.598667 0.166547 -0.157921
v 0.483194 0.127009 0.027965
v 0.543723 0.087968 -0.026081
v 0.471532 0.111074 0.044061
v 0.462072 0.091961 0.051077
v 0.350790 0.080697 0.084131
v 0.342829 0.171420 0.063591
v 0.338242 0.146563 0.072774
v 0.359271 0.278537 0.003768
v 0.268758 0.424874 0.658520
v 0.349595 0.452920 0.126928
v 0.364669 -0.568175 0.419751
v 0.356760 -0.548153 0.264929
v 0.376259 0.530398 0.251234
v 0.389062 0.552393 0.407097
v 0.351258 0.510476 0.554068
v 0.174103 0.310415 0.727153
v 0.139060 0.167205 0.741892
v 0.171265 -0.027121 0.702764
v 0.169497 -0.198690 0.752854
v 0.191930 -0.348992 0.738839
v 0.341673 -0.359846 0.053067
v 0.330559 -0.211201 0.004583
v 0.271965 0.004040 0.046482
v 0.332434 0.216538 0.017846
v 0.341464 0.347652 0.061011
v 0.245600 -0.193345 0.604978
v 0.268561 0.253457 0.539353
v 0.363800 -0.370650 0.409146
v 0.379676 -0.177529 0.224099
v 0.279575 0.003439 0.246450
v 0.405715 0.434235 0.246196
v 0.170410 -0.119763 0.736662
v 0.293969 -0.076196 0.029866
v 0.301520 -0.047356 0.437343
v 0.329248 -0.085270 0.226210
v 0.161245 0.063310 0.724526
v 0.317688 0.136853 0.022238
v 0.208352 -0.383998 0.728385
v 0.356265 -0.535350 0.226492
v 0.354652 -0.518163 0.191524
v 0.352523 -0.498637 0.159708
v 0.343205 0.377075 0.074766
v 0.345069 0.404000 0.089484
v 0.347196 0.429047 0.106505
v 0.334681 0.492235 0.584074
v 0.315713 0.471412 0.611067
v 0.294033 0.449190 0.635422
v 0.352548 -0.559429 0.496147
v 0.360561 -0.565657 0.458344
v 0.362960 -0.567611 0.380950
v 0.352331 -0.563435 0.342852
v 0.355642 -0.557043 0.303285
v 0.350678 0.470616 0.149637
v 0.356253 0.494641 0.183109
v 0.358808 0.513930 0.216821
v 0.385244 0.542531 0.289071
v 0.389755 0.550045 0.327784
v 0.390932 0.553566 0.367171
v 0.384022 0.547347 0.446470
v 0.375793 0.538055 0.484790
v 0.365113 0.525691 0.520876
v 0.324321 0.415031 0.543557
v 0.392007 0.503215 0.413863
v 0.392565 0.481684 0.227118
v 0.243420 0.398669 0.680126
v 0.220858 0.371836 0.698347
v 0.195896 0.342672 0.714748
v 0.159435 0.276320 0.735054
v 0.144478 0.239925 0.739086
v 0.135194 0.202743 0.739171
v 0.161606 0.019198 0.709651
v 0.163877 -0.005750 0.704011
v 0.168823 -0.147489 0.746082
v 0.170409 -0.170977 0.750711
v 0.163590 -0.232359 0.752217
v 0.163262 -0.271171 0.747291
v 0.174195 -0.311033 0.745349
v 0.347387 -0.451067 0.108375
v 0.344893 -0.423752 0.088090
v 0.342691 -0.392960 0.070395
v 0.338652 -0.322474 0.037981
v 0.336046 -0.284999 0.022488
v 0.333252 -0.246822 0.011148
v 0.282604 -0.049868 0.038065
v 0.274836 -0.023260 0.043805
v 0.323934 0.161816 0.017733
v 0.328787 0.187930 0.015893
v 0.335313 0.248152 0.024378
v 0.337677 0.281727 0.034662
v 0.339678 0.315426 0.047353
v 0.311794 -0.527078 0.597613
v 0.269237 -0.412096 0.600356
v 0.268389 -0.066266 0.526737
v 0.230277 -0.041512 0.597293
v 0.256127 0.145371 0.530852
v 0.268534 0.308161 0.563702
v 0.374198 -0.516022 0.414649
v 0.380518 -0.405046 0.372044
v 0.352096 -0.183246 0.412251
v 0.351165 0.171384 0.387875
v 0.353164 -0.504075 0.259467
v 0.382058 -0.459683 0.250042
v 0.389981 -0.416389 0.244195
v 0.393562 -0.271510 0.220640
v 0.288072 -0.035205 0.251002
v 0.376666 0.137946 0.225406
v 0.396530 0.200839 0.219302
v 0.406565 0.303129 0.227223
v 0.393738 -0.417384 0.286772
v 0.389304 -0.195259 0.267162
v 0.384648 -0.193235 0.314089
v 0.375112 -0.215861 0.360871
v 0.297815 0.004176 0.291221
v 0.296350 0.006306 0.331614
v 0.284788 -0.002261 0.389986
v 0.387359 0.205895 0.308584
v 0.401749 0.404641 0.329498
v 0.334689 -0.402838 0.480701
v 0.271753 -0.348153 0.564511
v 0.318971 -0.159450 0.472738
v 0.270541 -0.149838 0.549914
v 0.255030 -0.005693 0.476151
v 0.215979 -0.017989 0.574510
v 0.334215 0.351630 0.481480
v 0.223048 -0.335294 0.667220
v 0.202838 -0.193608 0.699602
v 0.167967 -0.015531 0.648355
v 0.171912 -0.028544 0.676389
v 0.179286 0.153944 0.663964
v 0.137324 0.186196 0.706999
v 0.203930 0.305969 0.690262
v 0.381175 -0.348861 0.192494
v 0.339785 -0.183623 0.118027
v 0.360403 -0.207186 0.172709
v 0.282027 0.003389 0.141909
v 0.283005 0.016474 0.198371
v 0.340025 0.218057 0.073895
v 0.391780 0.214364 0.173611
v 0.385203 0.403098 0.160667
v 0.398394 0.423519 0.201438
v 0.172822 -0.046902 0.705759
v 0.168467 -0.070484 0.712772
v 0.325608 -0.179594 0.003545
v 0.319959 -0.151313 0.006963
v 0.312765 -0.125252 0.013476
v 0.244073 -0.136670 0.597062
v 0.331133 -0.129233 0.437483
v 0.366916 -0.142380 0.225902
v 0.325762 -0.118098 0.181889
v 0.198345 -0.127148 0.701905
v 0.363303 -0.116188 0.275089
v 0.324946 -0.050489 0.339222
v 0.317579 -0.049183 0.384498
v 0.147768 0.137028 0.740664
v 0.155844 0.110447 0.736933
v 0.159791 0.086335 0.731445
v 0.276316 0.032000 0.045230
v 0.289245 0.066342 0.039581
v 0.173451 0.004662 0.590567
v 0.169967 0.032465 0.591218
v 0.221392 0.050731 0.544959
v 0.293024 0.034665 0.394627
v 0.306936 0.030218 0.242275
v 0.345638 0.083685 0.232788
v 0.322951 0.119304 0.133795
v 0.373288 0.145068 0.181670
v 0.180619 0.076843 0.626832
v 0.160173 0.044278 0.647207
v 0.158866 0.090332 0.683982
v 0.307652 0.104639 0.431329
v 0.361038 0.123246 0.316510
v 0.346620 0.123205 0.361959
v 0.349960 0.426815 0.132046
v 0.269642 0.364102 0.599171
v 0.367126 0.362283 0.419365
v 0.405797 0.458412 0.301942
v 0.400476 0.509772 0.339430
v 0.399957 0.499577 0.285197
v 0.381569 -0.518713 0.360821
v 0.377438 -0.511374 0.295666
v 0.387698 -0.470574 0.340773
v 0.388676 -0.465812 0.289369
v 0.391025 -0.303123 0.316919
v 0.396738 -0.302723 0.271650
v 0.319078 -0.044721 0.296689
v 0.302850 -0.022698 0.351877
v 0.297273 -0.024978 0.289647
v 0.385455 0.161392 0.267614
v 0.386446 0.370172 0.374228
v 0.405879 0.306231 0.267336
v 0.341857 -0.550808 0.532291
v 0.327708 -0.540116 0.565835
v 0.336351 -0.308251 0.453953
v 0.275690 -0.271341 0.544336
v 0.273362 -0.041358 0.501257
v 0.306129 0.141807 0.455432
v 0.331447 0.272260 0.452835
v 0.253989 -0.470815 0.676442
v 0.274368 -0.492736 0.652515
v 0.294483 -0.511440 0.626298
v 0.236519 -0.444983 0.697069
v 0.222125 -0.415970 0.714527
v 0.178842 -0.268577 0.711300
v 0.221331 -0.270840 0.654642
v 0.177499 -0.065071 0.686814
v 0.199519 -0.048007 0.648388
v 0.223490 -0.074187 0.613450
v 0.162084 0.105469 0.668576
v 0.199399 0.118158 0.627508
v 0.147835 0.141876 0.704702
v 0.201587 0.210700 0.647287
v 0.163024 0.247508 0.701867
v 0.210350 0.266202 0.655585
v 0.352899 -0.462697 0.213698
v 0.350063 -0.475835 0.131850
v 0.351223 -0.430530 0.166526
v 0.373169 -0.411524 0.202349
v 0.345992 -0.250999 0.122785
v 0.370842 -0.262185 0.168100
v 0.300009 -0.059908 0.194886
v 0.288054 -0.028293 0.169621
v 0.333893 0.156786 0.127521
v 0.333288 0.171089 0.072720
v 0.354065 0.183285 0.124189
v 0.375221 0.245521 0.127180
v 0.400641 0.296467 0.180862
v 0.384610 0.305626 0.138632
v 0.344251 0.287049 0.087105
v 0.339675 -0.175211 0.174525
v 0.201279 -0.158334 0.708414
v 0.361647 -0.142584 0.365879
v 0.366880 -0.130410 0.320374
v 0.290067 0.043280 0.151456
v 0.305409 0.056103 0.194342
v 0.331172 0.081475 0.188782
v 0.162222 0.048055 0.628670
v 0.202168 0.009746 0.550651
v 0.248941 0.015333 0.479643
v 0.346138 0.083896 0.275093
v 0.311619 -0.004054 0.111305
v 0.604788 -0.097536 -0.086395
v 0.325311 -0.110143 0.083284
v 0.343897 -0.206596 0.047047
v 0.421615 -0.348228 -0.113930
v 0.514882 -0.378355 -0.246602
v 0.615666 -0.304830 -0.274192
v 0.644529 -0.233042 -0.216782
v 0.636890 -0.147485 -0.141119
v 0.558614 -0.059408 -0.027059
v 0.483462 -0.034076 0.035017
v 0.482690 -0.295371 -0.195288
v 0.288274 -0.020651 0.114990
v 0.300562 -0.043351 0.106314
v 0.307961 -0.069326 0.097748
v 0.344099 -0.241176 0.031832
v 0.364639 -0.294725 -0.013192
v 0.378997 -0.317063 -0.042012
v 0.395321 -0.333741 -0.071329
v 0.441384 -0.365682 -0.150435
v 0.463775 -0.375566 -0.183775
v 0.489002 -0.380087 -0.217383
v 0.532673 -0.373250 -0.262717
v 0.545207 -0.367524 -0.272256
v 0.573288 -0.350219 -0.287341
v 0.595405 -0.329530 -0.289907
v 0.626624 -0.288322 -0.261880
v 0.635221 -0.269435 -0.248913
v 0.642756 -0.252551 -0.232774
v 0.647009 -0.213339 -0.200076
v 0.646157 -0.193986 -0.183117
v 0.643656 -0.174659 -0.166062
v 0.627220 -0.125732 -0.119905
v 0.620122 -0.111183 -0.105170
v 0.590490 -0.078847 -0.064042
v 0.577139 -0.069973 -0.048280
v 0.528969 -0.047436 0.003571
v 0.398801 -0.009355 0.069272
v 0.371604 -0.003671 0.081658
v 0.347181 -0.004072 0.094158
v 0.327297 0.001618 0.104794
v 0.518925 -0.296499 -0.240829
v 0.382500 -0.271808 -0.010773
v 0.410425 -0.214032 0.022601
v 0.491221 -0.269116 -0.192059
v 0.535747 -0.272948 -0.240547
v 0.497795 -0.235963 -0.164260
v 0.518143 -0.237958 -0.197317
v 0.425430 -0.163310 0.050230
v 0.427035 -0.135989 0.060041
v 0.439800 -0.242934 -0.050590
v 0.480400 -0.165505 0.000571
v 0.569579 -0.155840 -0.123701
v 0.455717 -0.129578 0.049675
v 0.544704 -0.121572 -0.050817
v 0.393062 -0.314449 -0.057741
v 0.420254 -0.313091 -0.099152
v 0.526842 -0.335938 -0.258615
v 0.563500 -0.307005 -0.276626
v 0.554194 -0.225816 -0.208763
v 0.597571 -0.152722 -0.135819
v 0.552437 -0.086993 -0.033607
v 0.582006 -0.121761 -0.092754
v 0.483744 -0.090952 0.037540
v 0.390867 -0.055733 0.072935
v 0.429216 -0.101673 0.064941
v 0.354231 -0.097415 0.078375
v 0.406663 -0.265630 -0.030616
v 0.424893 -0.281617 -0.078527
v 0.443873 -0.180973 0.027751
v 0.538525 -0.153014 -0.084191
v 0.502141 -0.327860 -0.230781
v 0.558284 -0.359720 -0.280603
v 0.548447 -0.332250 -0.275656
v 0.577524 -0.322625 -0.290111
v 0.556892 -0.276717 -0.254162
v 0.581721 -0.264827 -0.250890
v 0.482454 -0.122523 0.030892
v 0.459362 -0.088004 0.052546
v 0.353960 -0.058964 0.083067
v 0.341667 -0.169305 0.061866
v 0.337062 -0.145491 0.070691
v 0.356440 -0.275585 0.004029
v 0.352080 -0.261044 0.014815
v 0.317280 0.008680 0.114253
v 0.613078 0.097815 -0.093715
v 0.329391 0.112905 0.087778
v 0.360087 0.263616 0.016659
v 0.424015 0.351048 -0.109940
v 0.461578 0.365395 -0.171810
v 0.608788 0.296880 -0.268766
v 0.641501 0.234492 -0.216454
v 0.637251 0.155888 -0.147441
v 0.570633 0.065033 -0.035096
v 0.486327 0.287384 -0.192339
v 0.293895 0.023094 0.118630
v 0.305890 0.044754 0.110300
v 0.312715 0.070967 0.102003
v 0.371794 0.301855 -0.012691
v 0.386924 0.323363 -0.041301
v 0.403021 0.338039 -0.072245
v 0.445906 0.361029 -0.147413
v 0.479177 0.367335 -0.196887
v 0.503875 0.364780 -0.228094
v 0.528204 0.357257 -0.252584
v 0.545916 0.348209 -0.266187
v 0.563880 0.336362 -0.276588
v 0.588234 0.315322 -0.282390
v 0.620486 0.282350 -0.257084
v 0.630538 0.266266 -0.245553
v 0.635107 0.250610 -0.230927
v 0.644031 0.216886 -0.201608
v 0.644144 0.191463 -0.179462
v 0.626437 0.125739 -0.119370
v 0.595911 0.084846 -0.070056
v 0.584251 0.074711 -0.053240
v 0.549409 0.053824 -0.010212
v 0.508673 0.038366 0.025568
v 0.468160 0.025738 0.048348
v 0.401655 0.007963 0.073521
v 0.376467 0.004531 0.086139
v 0.353186 -0.002017 0.096917
v 0.333004 0.002871 0.107773
v 0.522621 0.292166 -0.240911
v 0.389911 0.278941 -0.010238
v 0.414462 0.221982 0.024135
v 0.493953 0.265156 -0.189927
v 0.536348 0.266223 -0.237235
v 0.545780 0.226978 -0.205766
v 0.500487 0.240272 -0.169374
v 0.526218 0.229086 -0.192043
v 0.422491 0.172185 0.053383
v 0.448112 0.246621 -0.048881
v 0.485931 0.173102 -0.003292
v 0.563506 0.162816 -0.123201
v 0.443084 0.129404 0.060984
v 0.534200 0.127474 -0.033415
v 0.415502 0.317493 -0.078130
v 0.528399 0.319818 -0.253345
v 0.561728 0.296447 -0.270823
v 0.566513 0.230116 -0.216768
v 0.599854 0.136663 -0.118148
v 0.568567 0.125250 -0.078741
v 0.378769 0.046958 0.081954
v 0.429198 0.090985 0.069116
v 0.417081 0.124326 0.070040
v 0.346349 0.210527 0.051823
v 0.351074 0.245029 0.032899
v 0.415203 0.272272 -0.031163
v 0.432579 0.285858 -0.078533
v 0.517207 0.262662 -0.218301
v 0.449505 0.187945 0.027540
v 0.451215 0.154147 0.048667
v 0.524911 0.171540 -0.076167
v 0.501228 0.315998 -0.222559
v 0.549504 0.315727 -0.269787
v 0.573757 0.308446 -0.282781
v 0.555839 0.269884 -0.250163
v 0.577948 0.260935 -0.247972
v 0.599571 0.171263 -0.156206
v 0.487409 0.129281 0.029432
v 0.548010 0.090262 -0.024705
v 0.475277 0.112257 0.046299
v 0.465154 0.092015 0.053819
v 0.352425 0.081824 0.087352
v 0.343584 0.174076 0.066639
v 0.339107 0.148670 0.075975
v 0.361826 0.282164 0.005716
s 0
usemtl Material.007
f 131 165 45
f 56 47 5
f 166 39 57
f 123 59 8
f 166 57 123
f 54 39 166
f 39 1 57
f 116 54 166
f 109 168 55
f 168 170 169
f 182 23 168
f 169 49 50
f 109 55 181
f 173 90 89
f 43 171 42
f 175 104 90
f 96 102 176
f 20 104 91
f 143 27 177
f 97 179 177
f 178 106 107
f 180 108 163
f 164 92 162
f 108 182 109
f 108 181 92
f 180 99 182
f 181 167 92
f 3 89 41
f 83 110 84
f 111 185 186
f 110 20 185
f 186 112 113
f 111 186 196
f 139 26 187
f 26 107 114
f 187 114 115
f 162 87 153
f 188 87 162
f 188 19 87
f 87 19 201
f 153 87 201
f 92 189 188
f 167 116 189
f 193 84 194
f 192 83 84
f 84 111 117
f 117 196 195
f 12 117 69
f 196 18 118
f 68 195 67
f 198 120 197
f 199 198 142
f 85 86 199
f 120 10 133
f 201 121 200
f 28 161 148
f 121 122 202
f 148 161 147
f 205 123 204
f 122 62 9
f 19 205 203
f 19 88 205
f 123 8 60
f 207 208 32
f 208 209 206
f 32 206 31
f 72 13 207
f 208 124 209
f 206 94 93
f 210 211 124
f 124 96 95
f 13 210 208
f 14 125 210
f 25 76 213
f 77 15 127
f 213 127 128
f 27 212 97
f 215 216 214
f 158 98 156
f 158 99 98
f 219 220 131
f 221 125 141
f 125 221 126
f 140 141 27
f 138 142 222
f 222 65 66
f 112 139 85
f 18 113 138
f 104 103 223
f 224 143 144
f 91 223 139
f 225 226 128
f 150 157 225
f 128 155 22
f 149 150 225
f 157 158 227
f 119 228 160
f 120 64 10
f 119 64 120
f 115 151 119
f 153 159 228
f 63 161 28
f 64 160 63
f 230 153 229
f 115 229 151
f 154 162 230
f 231 163 106
f 106 154 107
f 274 299 275
f 276 279 278
f 243 273 276
f 273 277 279
f 275 301 280
f 281 285 297
f 283 286 293
f 283 293 309
f 249 287 274
f 287 299 274
f 287 288 299
f 248 274 314
f 236 251 250
f 251 243 288
f 288 243 276
f 288 276 300
f 288 300 299
f 250 288 287
f 252 303 243
f 303 273 243
f 306 290 305
f 307 308 291
f 290 308 307
f 260 261 259
f 45 56 132 131
f 291 263 292
f 308 261 263
f 291 292 284
f 263 240 265
f 294 266 293
f 295 268 242
f 310 242 269
f 298 297 311
f 270 271 272
f 245 270 244
f 235 280 312
f 281 297 298
f 356 380 357
f 355 359 382
f 357 383 363
f 384 392 394
f 361 362 385
f 365 368 392
f 364 385 365
f 331 332 356
f 330 356 399
f 333 326 369
f 369 326 358
f 369 358 381
f 369 381 380
f 335 386 334
f 370 355 386
f 386 355 326
f 321 386 333
f 336 370 335
f 388 371 387
f 389 390 372
f 371 390 389
f 342 343 341
f 390 343 391
f 391 324 373
f 373 345 346
f 374 347 393
f 394 348 349
f 395 349 350
f 396 375 352
f 318 396 329
f 377 376 396
f 375 351 352
f 352 353 354
f 328 352 327
f 378 363 397
f 379 363 378
f 398 377 396
f 399 357 379
f 319 399 379
f 34 165 220 17
f 131 220 165
f 2 45 165 36
f 165 34 35
f 165 35 36
f 46 47 56 45
f 38 39 54 37
f 23 132 56
f 58 59 123 57
f 37 54 167 7
f 53 7 181 55
f 167 181 7
f 52 53 55 51
f 116 167 54
f 55 6 51
f 56 170 168 23
f 55 168 169
f 109 182 168
f 5 48 170 56
f 48 49 169 170
f 50 6 55 169
f 173 171 172 174
f 171 173 89
f 89 3 42 171
f 174 101 173
f 171 43 44 172
f 172 44 4 93
f 174 172 93 94
f 101 174 94 95
f 103 175 176 102
f 175 103 104
f 175 173 101 176
f 173 175 90
f 176 101 95 96
f 178 144 177 179
f 96 21 102
f 90 104 20
f 145 144 178
f 105 179 97 22
f 144 143 177
f 27 97 177
f 106 178 179 105
f 92 164 163 108
f 26 178 107
f 26 145 178
f 180 231 156 98
f 231 180 163
f 90 184 183 89
f 98 99 180
f 181 108 109
f 180 182 108
f 182 99 100
f 182 100 23
f 20 110 184 90
f 83 184 110
f 89 183 40 41
f 91 112 185 20
f 84 110 111
f 186 185 112
f 111 110 185
f 113 18 196 186
f 88 19 189 116
f 85 139 187
f 187 26 114
f 86 187 115
f 85 187 86
f 162 92 188
f 84 193 190 191
f 188 189 19
f 92 167 189
f 88 116 166
f 117 12 30 194
f 191 192 84
f 194 84 117
f 11 67 195 118
f 117 111 196
f 195 196 118
f 195 68 69 117
f 134 24 142 197
f 199 86 198
f 115 119 198 86
f 142 198 197
f 133 134 197 120
f 198 119 120
f 202 161 200 121
f 200 160 159 201
f 161 160 200
f 9 146 202 122
f 201 19 203
f 201 203 121
f 202 146 147 161
f 204 122 203 205
f 123 205 88 166
f 121 203 122
f 60 61 204 123
f 61 62 122 204
f 93 4 31 206
f 32 208 206
f 95 94 206 209
f 33 207 32
f 70 71 207
f 71 72 207
f 207 13 208
f 209 124 95
f 14 13 74 75
f 13 14 210
f 208 210 124
f 73 74 13
f 126 211 210 125
f 21 96 211 126
f 128 22 97 213
f 124 211 96
f 212 141 213
f 141 25 213
f 27 141 212
f 213 76 77
f 213 77 127
f 215 157 29 78
f 97 212 213
f 157 214 158
f 157 215 214
f 158 214 216
f 16 129 215 79
f 78 79 215
f 129 130 158 216
f 216 215 129
f 219 218 130 217
f 99 158 130
f 220 219 217 129
f 81 220 129 80
f 130 129 217
f 129 16 80
f 131 132 218 219
f 220 81 82
f 220 82 17
f 132 23 100 218
f 218 100 99 130
f 137 141 125 136
f 125 135 136
f 140 21 221 141
f 126 221 21
f 14 135 125
f 141 137 25
f 66 11 118 222
f 18 138 222
f 24 65 222 142
f 118 18 222
f 138 199 142
f 199 138 113 85
f 112 91 139
f 113 112 85
f 143 224 103 102
f 223 103 224
f 140 143 102 21
f 91 104 223
f 144 145 223 224
f 143 140 27
f 145 26 139 223
f 227 226 225 157
f 225 127 15 149
f 127 225 128
f 226 156 155 128
f 150 29 157
f 227 158 156
f 226 227 156
f 228 119 151 152
f 64 119 160
f 230 229 115 114
f 152 153 228
f 153 201 159
f 160 228 159
f 63 160 161
f 230 162 153
f 230 114 107 154
f 152 151 229 153
f 164 154 106 163
f 105 231 106
f 231 105 155 156
f 105 22 155
f 278 282 300 276
f 154 164 162
f 299 300 282
f 285 281 280 301
f 275 299 301
f 276 273 279
f 279 277 291
f 309 285 301 283
f 283 301 299 282
f 284 302 279 291
f 278 279 302
f 294 286 302 284
f 302 283 282 278
f 283 302 286
f 303 253 237 289
f 249 250 287
f 248 249 274
f 250 251 288
f 253 303 252
f 289 237 254 305
f 303 289 273
f 251 252 243
f 304 306 305
f 305 254 255 304
f 306 304 256 257
f 273 289 305 290
f 257 238 306
f 307 277 273 290
f 308 290 306 259
f 259 306 238 258
f 267 241 293 266
f 260 239 261
f 259 261 308
f 277 307 291
f 263 261 262
f 291 308 263
f 284 292 294
f 294 265 266
f 266 265 233
f 294 292 265
f 292 263 265
f 265 240 264
f 241 295 309 293
f 295 310 285 309
f 286 294 293
f 295 241 268
f 297 285 310
f 311 246 234 298
f 310 295 242
f 297 310 269
f 296 297 269
f 311 297 296
f 269 270 311 296
f 232 244 270 272
f 270 245 246 311
f 281 313 312 280
f 275 315 314 274
f 313 281 298
f 234 313 298
f 280 235 315 275
f 361 364 381 358
f 247 315 235
f 380 381 364
f 362 361 358 382
f 364 361 385
f 357 380 383
f 382 358 326 355
f 360 362 382 359
f 392 384 383 365
f 365 383 380 364
f 367 377 363 384
f 367 384 394
f 374 368 385 366
f 363 383 384
f 385 362 366
f 362 360 366
f 380 356 332 369
f 365 385 368
f 387 336 337 338
f 332 320 369
f 330 331 356
f 320 333 369
f 334 386 321
f 335 370 386
f 333 386 326
f 338 388 387
f 336 387 370
f 355 370 387 371
f 338 339 388
f 339 322 388
f 389 359 355 371
f 390 371 388 341
f 341 388 322 340
f 372 360 359 389
f 342 323 343
f 341 343 390
f 373 374 366 391
f 391 343 344
f 391 344 324
f 372 390 391
f 391 366 360 372
f 346 347 374 373
f 346 345 317
f 373 324 345
f 348 394 392 393
f 368 374 393
f 325 348 393 347
f 392 368 393
f 350 351 376 395
f 395 376 367 394
f 377 367 376
f 316 327 352 354
f 395 394 349
f 375 376 351
f 396 376 375
f 352 328 329 396
f 377 398 397 363
f 318 398 396
f 399 356 357
f 379 357 363
f 530 444 564
f 455 404 446
f 565 456 438
f 522 407 458
f 565 522 456
f 453 565 438
f 438 456 400
f 515 565 453
f 508 454 567
f 567 568 569
f 581 567 422
f 568 449 448
f 508 580 454
f 572 488 489
f 442 441 570
f 574 489 503
f 495 575 501
f 419 490 503
f 542 576 426
f 496 576 578
f 577 506 505
f 579 562 507
f 563 561 491
f 507 508 581
f 507 491 580
f 579 581 498
f 580 491 566
f 402 440 488
f 482 483 509
f 510 585 584
f 509 584 419
f 585 512 511
f 510 595 585
f 538 586 425
f 425 513 506
f 586 514 513
f 561 552 486
f 587 561 486
f 587 486 418
f 486 600 418
f 552 600 486
f 491 587 588
f 566 588 515
f 592 593 483
f 591 483 482
f 483 516 510
f 516 594 595
f 411 468 516
f 595 517 417
f 467 466 594
f 597 596 519
f 598 541 597
f 484 598 485
f 519 532 409
f 600 599 520
f 427 547 560
f 520 601 521
f 547 546 560
f 604 603 522
f 521 408 461
f 418 602 604
f 418 604 487
f 522 459 407
f 606 431 607
f 607 605 608
f 431 430 605
f 471 606 412
f 607 608 523
f 605 492 493
f 609 523 610
f 523 494 495
f 412 607 609
f 413 609 524
f 424 612 475
f 476 526 414
f 612 527 526
f 426 496 611
f 614 613 615
f 557 555 497
f 557 497 498
f 618 530 619
f 620 540 524
f 524 525 620
f 539 426 540
f 537 621 541
f 621 465 464
f 511 484 538
f 417 537 512
f 503 622 502
f 623 543 542
f 490 538 622
f 624 527 625
f 549 624 556
f 527 421 554
f 548 624 549
f 556 626 557
f 518 559 627
f 519 409 463
f 518 519 463
f 514 518 550
f 552 627 558
f 462 427 560
f 463 462 559
f 629 628 552
f 514 550 628
f 553 629 561
f 630 505 562
f 505 506 553
f 673 674 698
f 675 677 678
f 642 675 672
f 672 678 676
f 674 679 700
f 680 696 684
f 682 692 685
f 682 708 692
f 648 673 686
f 686 673 698
f 686 698 687
f 647 713 673
f 635 649 650
f 650 687 642
f 687 675 642
f 687 699 675
f 687 698 699
f 649 686 687
f 651 642 702
f 702 642 672
f 705 704 689
f 706 690 707
f 689 706 707
f 659 658 660
f 444 530 531 455
f 690 691 662
f 707 662 660
f 690 683 691
f 662 664 639
f 693 692 665
f 694 641 667
f 709 668 641
f 697 710 696
f 669 671 670
f 644 643 669
f 634 711 679
f 680 697 696
f 755 756 779
f 754 781 758
f 756 762 782
f 783 793 791
f 760 784 761
f 764 791 767
f 763 764 784
f 730 755 731
f 729 798 755
f 732 768 725
f 768 757 725
f 768 780 757
f 768 779 780
f 734 733 785
f 769 785 754
f 785 725 754
f 720 732 785
f 735 734 769
f 787 786 770
f 788 771 789
f 770 788 789
f 741 740 742
f 789 790 742
f 790 772 723
f 772 745 744
f 773 792 746
f 793 748 747
f 794 749 748
f 795 751 774
f 717 728 795
f 776 795 775
f 774 751 750
f 751 753 752
f 727 726 751
f 777 796 762
f 778 777 762
f 797 795 776
f 798 778 756
f 718 778 798
f 433 416 619 564
f 530 564 619
f 401 435 564 444
f 564 434 433
f 564 435 434
f 445 444 455 446
f 437 436 453 438
f 422 455 531
f 457 456 522 458
f 436 406 566 453
f 452 454 580 406
f 566 406 580
f 451 450 454 452
f 515 453 566
f 454 450 405
f 455 422 567 569
f 454 568 567
f 508 567 581
f 404 455 569 447
f 447 569 568 448
f 449 568 454 405
f 572 573 571 570
f 570 488 572
f 488 570 441 402
f 573 572 500
f 570 571 443 442
f 571 492 403 443
f 573 493 492 571
f 500 494 493 573
f 502 501 575 574
f 574 503 502
f 574 575 500 572
f 572 489 574
f 575 495 494 500
f 577 578 576 543
f 495 501 420
f 489 419 503
f 544 577 543
f 504 421 496 578
f 543 576 542
f 426 576 496
f 505 504 578 577
f 491 507 562 563
f 425 506 577
f 425 577 544
f 579 497 555 630
f 630 562 579
f 489 488 582 583
f 497 579 498
f 580 508 507
f 579 507 581
f 581 499 498
f 581 422 499
f 419 489 583 509
f 482 509 583
f 488 440 439 582
f 490 419 584 511
f 483 510 509
f 585 511 584
f 510 584 509
f 512 585 595 417
f 487 515 588 418
f 484 586 538
f 586 513 425
f 485 514 586
f 484 485 586
f 561 587 491
f 483 590 589 592
f 587 418 588
f 491 588 566
f 487 565 515
f 516 593 429 411
f 590 483 591
f 593 516 483
f 410 517 594 466
f 516 595 510
f 594 517 595
f 594 516 468 467
f 533 596 541 423
f 598 597 485
f 514 485 597 518
f 541 596 597
f 532 519 596 533
f 597 519 518
f 601 520 599 560
f 599 600 558 559
f 560 599 559
f 408 521 601 545
f 600 602 418
f 600 520 602
f 601 560 546 545
f 603 604 602 521
f 522 565 487 604
f 520 521 602
f 459 522 603 460
f 460 603 521 461
f 492 605 430 403
f 431 605 607
f 494 608 605 493
f 432 431 606
f 469 606 470
f 470 606 471
f 606 607 412
f 608 494 523
f 413 474 473 412
f 412 609 413
f 607 523 609
f 472 412 473
f 525 524 609 610
f 420 525 610 495
f 527 612 496 421
f 523 495 610
f 611 612 540
f 540 612 424
f 426 611 540
f 612 476 475
f 612 526 476
f 614 477 428 556
f 496 612 611
f 556 557 613
f 556 613 614
f 557 615 613
f 415 478 614 528
f 477 614 478
f 528 615 557 529
f 615 528 614
f 618 616 529 617
f 498 529 557
f 619 528 616 618
f 480 479 528 619
f 529 616 528
f 528 479 415
f 530 618 617 531
f 619 481 480
f 619 416 481
f 531 617 499 422
f 617 529 498 499
f 536 535 524 540
f 524 535 534
f 539 540 620 420
f 525 420 620
f 413 524 534
f 540 424 536
f 465 621 517 410
f 417 621 537
f 423 541 621 464
f 517 621 417
f 537 541 598
f 598 484 512 537
f 511 538 490
f 512 484 511
f 542 501 502 623
f 622 623 502
f 539 420 501 542
f 490 622 503
f 543 623 622 544
f 542 426 539
f 544 622 538 425
f 626 556 624 625
f 624 548 414 526
f 526 527 624
f 625 527 554 555
f 549 556 428
f 626 555 557
f 625 555 626
f 627 551 550 518
f 463 559 518
f 629 513 514 628
f 551 627 552
f 552 558 600
f 559 558 627
f 462 560 559
f 629 552 561
f 629 553 506 513
f 551 552 628 550
f 563 562 505 553
f 504 505 630
f 630 555 554 504
f 504 554 421
f 677 675 699 681
f 553 561 563
f 698 681 699
f 684 700 679 680
f 674 700 698
f 675 678 672
f 678 690 676
f 708 682 700 684
f 682 681 698 700
f 683 690 678 701
f 677 701 678
f 693 683 701 685
f 701 677 681 682
f 682 685 701
f 702 688 636 652
f 648 686 649
f 647 673 648
f 649 687 650
f 652 651 702
f 688 704 653 636
f 702 672 688
f 650 642 651
f 703 704 705
f 704 703 654 653
f 705 656 655 703
f 672 689 704 688
f 656 705 637
f 706 689 672 676
f 707 658 705 689
f 658 657 637 705
f 666 665 692 640
f 659 660 638
f 658 707 660
f 676 690 706
f 662 661 660
f 690 662 707
f 683 693 691
f 693 665 664
f 665 632 664
f 693 664 691
f 691 664 662
f 664 663 639
f 640 692 708 694
f 694 708 684 709
f 685 692 693
f 694 667 640
f 696 709 684
f 710 697 633 645
f 709 641 694
f 696 668 709
f 695 668 696
f 710 695 696
f 668 695 710 669
f 631 671 669 643
f 669 710 645 644
f 680 679 711 712
f 674 673 713 714
f 712 697 680
f 633 697 712
f 679 674 714 634
f 760 757 780 763
f 646 634 714
f 779 763 780
f 761 781 757 760
f 763 784 760
f 756 782 779
f 781 754 725 757
f 759 758 781 761
f 791 764 782 783
f 764 763 779 782
f 766 783 762 776
f 766 793 783
f 773 765 784 767
f 762 783 782
f 784 765 761
f 761 765 759
f 779 768 731 755
f 764 767 784
f 786 737 736 735
f 731 768 719
f 729 755 730
f 719 768 732
f 733 720 785
f 734 785 769
f 732 725 785
f 737 786 787
f 735 769 786
f 754 770 786 769
f 737 787 738
f 738 787 721
f 788 770 754 758
f 789 740 787 770
f 740 739 721 787
f 771 788 758 759
f 741 742 722
f 740 789 742
f 772 790 765 773
f 790 743 742
f 790 723 743
f 771 790 789
f 790 771 759 765
f 745 772 773 746
f 745 716 744
f 772 744 723
f 747 792 791 793
f 767 792 773
f 724 746 792 747
f 791 792 767
f 749 794 775 750
f 794 793 766 775
f 776 775 766
f 715 753 751 726
f 794 748 793
f 774 750 775
f 795 774 775
f 751 795 728 727
f 776 762 796 797
f 717 795 797
f 798 756 755
f 778 762 756
f 30 12 411 429
f 31 4 403 430
f 32 31 430 431
f 33 32 431 432
f 34 17 416 433
f 35 34 433 434
f 36 35 434 435
f 2 36 435 401
f 37 7 406 436
f 38 37 436 437
f 39 38 437 438
f 1 39 438 400
f 41 40 439 440
f 3 41 440 402
f 42 3 402 441
f 43 42 441 442
f 44 43 442 443
f 4 44 443 403
f 45 2 401 444
f 46 45 444 445
f 47 46 445 446
f 5 47 446 404
f 48 5 404 447
f 49 48 447 448
f 50 49 448 449
f 6 50 449 405
f 51 6 405 450
f 52 51 450 451
f 53 52 451 452
f 7 53 452 406
f 57 1 400 456
f 58 57 456 457
f 59 58 457 458
f 8 59 458 407
f 60 8 407 459
f 61 60 459 460
f 62 61 460 461
f 9 62 461 408
f 63 28 427 462
f 64 63 462 463
f 10 64 463 409
f 65 24 423 464
f 66 65 464 465
f 11 66 465 410
f 67 11 410 466
f 68 67 466 467
f 69 68 467 468
f 12 69 468 411
f 71 70 469 470
f 72 71 470 471
f 13 72 471 412
f 73 13 412 472
f 74 73 472 473
f 75 74 473 474
f 14 75 474 413
f 76 25 424 475
f 77 76 475 476
f 15 77 476 414
f 78 29 428 477
f 79 78 477 478
f 16 79 478 415
f 80 16 415 479
f 81 80 479 480
f 82 81 480 481
f 17 82 481 416
f 133 10 409 532
f 134 133 532 533
f 24 134 533 423
f 135 14 413 534
f 136 135 534 535
f 137 136 535 536
f 25 137 536 424
f 146 9 408 545
f 147 146 545 546
f 148 147 546 547
f 28 148 547 427
f 149 15 414 548
f 150 149 548 549
f 29 150 549 428
f 183 184 583 582
f 184 83 482 583
f 40 183 582 439
f 191 190 589 590
f 192 191 590 591
f 190 193 592 589
f 193 194 593 592
f 194 30 429 593
f 207 33 432 606
f 70 207 606 469
f 244 232 631 643
f 245 244 643 644
f 246 245 644 645
f 234 246 645 633
f 235 312 711 634
f 247 235 634 646
f 248 314 713 647
f 250 249 648 649
f 253 252 651 652
f 237 253 652 636
f 254 237 636 653
f 255 254 653 654
f 257 256 655 656
f 238 257 656 637
f 258 238 637 657
f 259 258 657 658
f 260 259 658 659
f 239 260 659 638
f 261 239 638 660
f 262 261 660 661
f 263 262 661 662
f 240 263 662 639
f 264 240 639 663
f 265 264 663 664
f 233 265 664 632
f 267 266 665 666
f 241 267 666 640
f 268 241 640 667
f 242 268 667 641
f 269 242 641 668
f 270 269 668 669
f 271 270 669 670
f 272 271 670 671
f 232 272 671 631
f 236 250 649 635
f 249 248 647 648
f 304 255 654 703
f 256 304 703 655
f 312 313 712 711
f 313 234 633 712
f 314 315 714 713
f 315 247 646 714
f 327 316 715 726
f 328 327 726 727
f 329 328 727 728
f 318 329 728 717
f 319 379 778 718
f 330 399 798 729
f 332 331 730 731
f 321 333 732 720
f 334 321 720 733
f 335 334 733 734
f 336 335 734 735
f 337 336 735 736
f 339 338 737 738
f 322 339 738 721
f 340 322 721 739
f 341 340 739 740
f 342 341 740 741
f 323 342 741 722
f 343 323 722 742
f 344 343 742 743
f 347 346 745 746
f 325 347 746 724
f 348 325 724 747
f 349 348 747 748
f 350 349 748 749
f 351 350 749 750
f 352 351 750 751
f 353 352 751 752
f 354 353 752 753
f 316 354 753 715
f 379 378 777 778
f 399 319 718 798
f 320 332 731 719
f 331 330 729 730
f 333 320 719 732
f 338 337 736 737
f 324 344 743 723
f 317 345 744 716
f 345 324 723 744
f 378 397 796 777
f 397 398 797 796
f 398 318 717 797
f 83 192 591 482
f 251 236 635 650
f 252 251 650 651
f 266 233 632 665
f 346 317 716 745
o sepal
v 0.134261 0.102469 0.004839
v 0.306810 0.111460 0.004839
v 0.134261 0.082899 -0.076217
v 0.401626 0.115498 -0.053273
v 0.134261 0.031665 -0.126312
v 0.292893 0.018486 -0.137819
v 0.134261 -0.031665 -0.126312
v 0.417269 -0.063866 -0.178775
v 0.134261 -0.082899 -0.076217
v 0.265786 -0.082322 -0.073365
v 0.134261 -0.102469 0.004839
v 0.346204 -0.205578 0.004839
v 0.134261 -0.082899 0.085895
v 0.303092 -0.090173 0.093007
v 0.134261 -0.031665 0.135990
v 0.275277 -0.034443 0.185031
v 0.134261 0.031665 0.135990
v 0.278936 0.034443 0.147497
v 0.134261 0.082899 0.085895
v 0.324122 0.137724 0.132009
v 0.067666 0.080758 0.004839
v 0.067666 0.065334 -0.059042
v 0.067666 0.024955 -0.098523
v 0.067666 -0.024955 -0.098523
v 0.067666 -0.065334 -0.059042
v 0.067666 -0.080758 0.004839
v 0.067666 -0.065334 0.068720
v 0.067666 -0.024955 0.108201
v 0.067666 0.024955 0.108201
v 0.067666 0.065334 0.068720
v 0.024636 0.036847 0.004839
v 0.024636 0.029810 -0.024308
v 0.024636 0.011386 -0.042321
v 0.024636 -0.011386 -0.042321
v 0.024636 -0.029810 -0.024308
v 0.024636 -0.036847 0.004839
v 0.024636 -0.029810 0.033986
v 0.024636 -0.011386 0.051999
v 0.024636 0.011386 0.051999
v 0.024636 0.029810 0.033986
v 0.216585 0.034443 0.147497
v 0.216585 -0.034443 0.147497
v 0.216585 -0.090173 0.093007
v 0.216585 -0.111460 0.004839
v 0.216585 -0.090173 -0.083329
v 0.216585 -0.034443 -0.137819
v 0.003123 -0.000000 0.004839
v 0.216586 0.034443 -0.137819
v 0.252291 0.063268 -0.083329
v 0.216585 0.111460 0.004839
v 0.216585 0.090173 0.093007
s 0
usemtl Material.006
f 848 800 802 847
f 847 802 804 846
f 846 804 806 844
f 844 806 808 843
f 843 808 810 842
f 842 810 812 841
f 841 812 814 840
f 840 814 816 839
f 839 816 818 849
f 849 818 800 848
f 809 811 825 824
f 807 809 824 823
f 805 807 823 822
f 799 801 820 819
f 803 805 822 821
f 801 803 821 820
f 817 799 819 828
f 815 817 828 827
f 813 815 827 826
f 811 813 826 825
f 822 823 833 832
f 819 820 830 829
f 826 827 837 836
f 823 824 834 833
f 820 821 831 830
f 827 828 838 837
f 824 825 835 834
f 821 822 832 831
f 828 819 829 838
f 825 826 836 835
f 829 830 845
f 836 837 845
f 833 834 845
f 830 831 845
f 837 838 845
f 834 835 845
f 831 832 845
f 838 829 845
f 835 836 845
f 832 833 845
f 817 849 848 799
f 815 839 849 817
f 813 840 839 815
f 811 841 840 813
f 809 842 841 811
f 807 843 842 809
f 805 844 843 807
f 803 846 844 805
f 801 847 846 803
f 799 848 847 801
o Cube
v 0.646228 -0.026751 0.042576
v 0.637696 -0.026751 -0.016744
v 0.629164 -0.026751 -0.087283
v 0.521468 -0.026751 0.031011
v 0.515780 -0.026751 -0.025941
v 0.510092 -0.026751 -0.088440
v 0.396708 -0.026751 0.024675
v 0.393865 -0.026728 -0.030896
v 0.391021 -0.026786 -0.083677
v 0.396708 0.026751 0.024675
v 0.393865 0.026115 -0.028946
v 0.391021 0.024616 -0.080009
v 0.521468 0.026751 0.031011
v 0.515780 0.026751 -0.025941
v 0.510092 0.026751 -0.088440
v 0.646228 0.026751 0.042576
v 0.637696 0.026751 -0.016744
v 0.629164 0.026751 -0.087283
v 0.246724 0.000000 0.107259
v 0.330806 -0.003845 -0.127449
v 0.331514 -0.028902 -0.097183
v 0.245773 0.083234 0.071115
v 0.245618 0.041796 0.101494
v 0.243151 -0.112666 -0.009621
v 0.331130 -0.016311 -0.122911
v 0.245290 0.072230 0.087579
v 0.241482 -0.089179 -0.056073
v 0.243151 -0.112666 -0.009621
v 0.331368 -0.025538 -0.110904
v 0.241482 -0.089179 -0.056073
v 0.335716 -0.028082 0.056263
v 0.336427 0.000000 0.087942
v 0.244821 -0.093286 0.037064
v 0.335301 -0.024450 0.071202
v 0.245290 0.072230 0.087579
v 0.244821 0.093833 0.041456
v 0.243151 0.107846 -0.001472
v 0.335536 -0.014031 0.083073
v 0.241482 0.079694 -0.047451
v 0.245618 0.041796 0.101494
v 0.245773 0.083234 0.071115
v 0.246724 0.000000 0.107259
v 0.330806 -0.003845 -0.127449
v 0.240683 0.057558 -0.083632
v 0.331514 0.021245 -0.092846
v 0.240421 0.030255 -0.092157
v 0.331130 0.008615 -0.120959
v 0.240764 0.068356 -0.071957
v 0.240046 -0.005394 -0.097583
v 0.245618 -0.041796 0.101494
v 0.245290 -0.072230 0.087579
v 0.331368 0.017836 -0.107294
v 0.246724 0.000000 0.107259
v 0.245773 -0.083451 0.070147
v 0.240683 -0.068069 -0.092689
v 0.336427 0.000000 0.087942
v 0.335716 0.028082 0.056263
v 0.240421 -0.041027 -0.098228
v 0.240764 -0.078523 -0.081411
v 0.240046 -0.005394 -0.097583
v 0.335536 0.014031 0.083073
v 0.332108 0.021658 -0.065524
v 0.333564 0.024342 -0.017947
v 0.334940 0.027452 0.026825
v 0.335301 0.024450 0.071202
v 0.334940 -0.028119 0.024766
v 0.658109 0.000000 -0.148190
v 0.715240 0.000000 -0.106742
v 0.670368 -0.026751 -0.114898
v 0.678631 0.000000 -0.138634
v 0.674565 -0.013400 -0.138759
v 0.684705 -0.012966 -0.133605
v 0.705366 -0.013396 -0.112318
v 0.699562 0.000000 -0.123495
v 0.694763 -0.012938 -0.125150
v 0.678726 -0.023177 -0.126368
v 0.688551 -0.023186 -0.115256
v 0.687718 -0.020269 -0.125893
v 0.762026 0.000000 0.091310
v 0.706080 0.000000 0.118243
v 0.706559 -0.026751 0.083420
v 0.751304 0.000000 0.108200
v 0.753744 -0.013402 0.088036
v 0.744528 -0.012918 0.105792
v 0.696652 -0.013397 0.110993
v 0.731029 0.000000 0.117730
v 0.726778 -0.012969 0.112651
v 0.732868 -0.023178 0.085131
v 0.697111 -0.023153 0.097993
v 0.727181 -0.020251 0.102007
v 0.670368 0.026751 -0.114898
v 0.715240 0.000000 -0.106742
v 0.658109 0.000000 -0.148190
v 0.688551 0.023186 -0.115256
v 0.678726 0.023177 -0.126368
v 0.687718 0.020269 -0.125893
v 0.699562 0.000000 -0.123495
v 0.705366 0.013396 -0.112318
v 0.694763 0.012938 -0.125150
v 0.674565 0.013400 -0.138759
v 0.678631 0.000000 -0.138634
v 0.684705 0.012966 -0.133605
v 0.706559 0.026751 0.083420
v 0.706080 0.000000 0.118243
v 0.762026 0.000000 0.091310
v 0.697112 0.023153 0.097993
v 0.732868 0.023178 0.085131
v 0.727181 0.020251 0.102007
v 0.731029 0.000000 0.117730
v 0.696652 0.013397 0.110993
v 0.726778 0.012969 0.112651
v 0.753744 0.013402 0.088036
v 0.751304 0.000000 0.108200
v 0.744528 0.012918 0.105792
v 0.658109 0.000000 -0.148190
v 0.563515 0.000000 -0.154040
v 0.625496 0.026751 -0.123055
v 0.632064 0.000000 -0.152660
v 0.654560 0.013401 -0.143848
v 0.630581 0.012961 -0.149397
v 0.587757 0.013391 -0.150442
v 0.597515 0.000000 -0.154811
v 0.609299 0.012938 -0.151466
v 0.642268 0.023165 -0.134423
v 0.610526 0.023136 -0.138817
v 0.623557 0.020233 -0.144649
v 0.505202 0.000000 -0.149254
v 0.507647 0.026751 -0.118847
v 0.505529 0.013375 -0.145180
v 0.506424 0.023167 -0.134050
v 0.389798 0.024218 -0.103411
v 0.388575 -0.001410 -0.129745
v 0.389187 0.020684 -0.115619
v 0.388739 0.011308 -0.125425
v 0.399951 0.000000 0.088014
v 0.398330 0.026751 0.056344
v 0.399733 0.013375 0.083771
v 0.399140 0.023167 0.072179
v 0.527953 0.000000 0.095153
v 0.524710 0.026751 0.063082
v 0.527518 0.013375 0.090856
v 0.526331 0.023167 0.079117
v 0.651091 0.026751 0.075529
v 0.655954 0.000000 0.108483
v 0.653523 0.023167 0.092006
v 0.655303 0.013375 0.104068
v 0.388575 -0.001410 -0.129745
v 0.389798 -0.026842 -0.107172
v 0.388739 -0.014115 -0.127232
v 0.389187 -0.023433 -0.118800
v 0.505202 0.000000 -0.149254
v 0.507647 -0.026751 -0.118847
v 0.505529 -0.013375 -0.145180
v 0.506424 -0.023167 -0.134050
v 0.625496 -0.026751 -0.123055
v 0.563515 0.000000 -0.154040
v 0.658109 0.000000 -0.148190
v 0.610526 -0.023136 -0.138817
v 0.642268 -0.023165 -0.134423
v 0.623557 -0.020233 -0.144649
v 0.597515 0.000000 -0.154811
v 0.587756 -0.013391 -0.150442
v 0.609299 -0.012938 -0.151466
v 0.654560 -0.013401 -0.143848
v 0.632064 0.000000 -0.152660
v 0.630581 -0.012961 -0.149397
v 0.655954 0.000000 0.108483
v 0.651091 -0.026751 0.075529
v 0.655303 -0.013375 0.104068
v 0.653523 -0.023167 0.092006
v 0.527953 0.000000 0.095153
v 0.524710 -0.026751 0.063082
v 0.527518 -0.013375 0.090856
v 0.526331 -0.023167 0.079117
v 0.398330 -0.026751 0.056344
v 0.399951 0.000000 0.088014
v 0.399140 -0.023167 0.072179
v 0.399733 -0.013375 0.083771
v 0.332108 -0.028836 -0.069821
v 0.333564 -0.028393 -0.020942
v 0.332108 -0.028836 -0.069821
v 0.335301 0.024450 0.071202
v 0.333564 -0.028393 -0.020942
v 0.335536 0.014031 0.083073
v 0.335716 0.028082 0.056263
v 0.336427 0.000000 0.087942
v 0.331368 0.017836 -0.107294
v 0.334940 -0.028119 0.024766
v 0.331130 0.008615 -0.120959
v 0.331514 0.021245 -0.092846
v 0.334940 0.027452 0.026825
v 0.330806 -0.003845 -0.127449
v 0.335536 -0.014031 0.083073
v 0.335301 -0.024450 0.071202
v 0.333564 0.024342 -0.017947
v 0.336427 0.000000 0.087942
v 0.335716 -0.028082 0.056263
v 0.331368 -0.025538 -0.110904
v 0.331130 -0.016311 -0.122911
v 0.332108 0.021658 -0.065524
v 0.331514 -0.028902 -0.097183
v 0.330806 -0.003845 -0.127449
v 0.767846 0.000000 0.054617
v 0.707037 0.026751 0.048596
v 0.759699 0.013375 0.053810
v 0.737441 0.023167 0.051607
v 0.759612 0.000000 -0.008541
v 0.698654 0.026751 -0.012643
v 0.751445 0.013375 -0.009091
v 0.729133 0.023167 -0.010592
v 0.682627 0.026751 -0.081606
v 0.736089 0.000000 -0.075930
v 0.709358 0.023167 -0.078768
v 0.728926 0.013375 -0.076690
v 0.707037 -0.026751 0.048596
v 0.767846 0.000000 0.054617
v 0.737441 -0.023167 0.051607
v 0.759699 -0.013375 0.053810
v 0.698654 -0.026751 -0.012643
v 0.759612 0.000000 -0.008541
v 0.729133 -0.023167 -0.010592
v 0.751445 -0.013375 -0.009091
v 0.736089 0.000000 -0.075930
v 0.682627 -0.026751 -0.081606
v 0.728926 -0.013375 -0.076690
v 0.709358 -0.023167 -0.078768
v 0.240683 0.057558 -0.083632
v 0.244821 -0.093286 0.037064
v 0.240421 0.030255 -0.092157
v 0.240764 0.068356 -0.071957
v 0.244821 0.093833 0.041456
v 0.240046 -0.005394 -0.097583
v 0.245618 -0.041796 0.101494
v 0.245290 -0.072230 0.087579
v 0.243151 0.107846 -0.001472
v 0.246724 0.000000 0.107259
v 0.245773 -0.083451 0.070147
v 0.240683 -0.068069 -0.092689
v 0.240421 -0.041027 -0.098228
v 0.241482 0.079694 -0.047451
v 0.240764 -0.078523 -0.081411
v 0.240046 -0.005394 -0.097583
s 0
f 984 905 881 1025
f 977 864 867 966
f 966 867 1060 940
f 1045 1042 1082 1085
f 953 993 1016 929
f 894 1049 861 980
f 1064 930 1017 850
f 1001 855 858 997
f 862 989 992 865
f 997 858 1028 870
f 859 985 989 862
f 980 861 864 977
f 1052 954 928 1065
f 853 1021 1024 856
f 1029 1030 876 877
f 941 1061 1072 917
f 988 984 1025 1020
f 993 988 1020 1016
f 976 965 1005 1000
f 864 863 866 867
f 863 862 865 866
f 981 976 1000 996
f 861 860 863 864
f 860 859 862 863
f 1040 906 985 859
f 866 865 1053 1057
f 1049 1044 860 861
f 1004 852 855 1001
f 855 854 857 858
f 854 853 856 857
f 850 1017 1021 853
f 852 851 854 855
f 851 850 853 854
f 964 942 916 1006
f 1073 1068 851 852
f 856 1024 880 1037
f 892 869 909 898
f 1044 1040 859 860
f 918 1073 852 1004
f 1068 1064 850 851
f 867 866 1057 1060
f 865 992 952 1053
f 1061 1056 1069 1072
f 1056 1052 1065 1069
f 892 981 996 869
f 858 857 1032 1028
f 857 856 1037 1032
f 880 883 900 903
f 1044 1049 1089 1084
f 1050 1047 1087 1090
f 906 1040 1080 890
f 1041 1038 1078 1081
f 915 1029 877 882
f 1036 1039 1079 1076
f 881 905 891 902
f 913 1034 871 885
f 1038 1036 1076 1078
f 912 913 885 886
f 1033 1035 868 872
f 1032 1037 1077 873
f 1031 1033 872 875
f 870 1028 879 908
f 1089 897 1079 888
f 908 879 876 1090
f 903 900 1083 1086
f 889 884 875 872
f 904 908 1090 1087
f 897 893 1076 1079
f 902 891 868 1085
f 1084 1089 888 886
f 895 898 1081 1078
f 1080 1084 886 885
f 890 1080 885 871
f 900 899 1082 1083
f 1077 903 1086 882
f 916 919 921 920
f 919 923 924 921
f 917 922 924 923
f 922 926 927 924
f 918 925 927 926
f 925 920 921 927
f 921 924 927
f 928 931 933 932
f 931 935 936 933
f 929 934 936 935
f 934 938 939 936
f 930 937 939 938
f 937 932 933 939
f 933 936 939
f 940 943 945 944
f 943 947 948 945
f 941 946 948 947
f 946 950 951 948
f 942 949 951 950
f 949 944 945 951
f 945 948 951
f 952 955 957 956
f 955 959 960 957
f 953 958 960 959
f 958 962 963 960
f 954 961 963 962
f 961 956 957 963
f 957 960 963
f 964 967 969 968
f 967 971 972 969
f 965 970 972 971
f 970 974 975 972
f 966 973 975 974
f 973 968 969 975
f 969 972 975
f 1004 1007 1009 1008
f 1007 1011 1012 1009
f 1005 1010 1012 1011
f 1010 1014 1015 1012
f 1006 1013 1015 1014
f 1013 1008 1009 1015
f 1009 1012 1015
f 893 895 1078 1076
f 884 890 871 875
f 909 907 1088 1091
f 898 909 1091 1081
f 907 904 1087 1088
f 899 902 1085 1082
f 891 889 872 868
f 873 1077 882 877
f 879 873 877 876
f 914 906 890 884
f 911 912 886 888
f 878 870 908 904
f 981 892 896 983
f 983 896 901 982
f 982 901 894 980
f 993 953 959 995
f 995 959 955 994
f 994 955 952 992
f 1061 941 947 1063
f 1063 947 943 1062
f 1062 943 940 1060
f 916 942 950 919
f 919 950 946 923
f 923 946 941 917
f 953 929 935 958
f 958 935 931 962
f 962 931 928 954
f 1073 918 926 1075
f 1075 926 922 1074
f 1074 922 917 1072
f 1006 916 920 1013
f 1013 920 925 1008
f 1008 925 918 1004
f 1025 881 887 1027
f 1027 887 883 1026
f 1026 883 880 1024
f 942 964 968 949
f 949 968 973 944
f 944 973 966 940
f 965 976 978 970
f 970 978 979 974
f 974 979 977 966
f 976 981 983 978
f 978 983 982 979
f 979 982 980 977
f 905 984 986 910
f 910 986 987 914
f 914 987 985 906
f 984 988 990 986
f 986 990 991 987
f 987 991 989 985
f 988 993 995 990
f 990 995 994 991
f 991 994 992 989
f 869 996 998 874
f 874 998 999 878
f 878 999 997 870
f 996 1000 1002 998
f 998 1002 1003 999
f 999 1003 1001 997
f 1000 1005 1011 1002
f 1002 1011 1007 1003
f 1003 1007 1004 1001
f 929 1016 1018 934
f 934 1018 1019 938
f 938 1019 1017 930
f 1016 1020 1022 1018
f 1018 1022 1023 1019
f 1019 1023 1021 1017
f 1020 1025 1027 1022
f 1022 1027 1026 1023
f 1023 1026 1024 1021
f 964 1006 1014 967
f 967 1014 1010 971
f 971 1010 1005 965
f 1034 1031 875 871
f 1040 1044 1084 1080
f 901 896 895 893
f 887 881 902 899
f 1047 1048 1088 1087
f 1051 1041 1081 1091
f 1037 880 903 1077
f 910 914 884 889
f 874 878 904 907
f 1046 915 882 1086
f 894 901 893 897
f 896 892 898 895
f 1035 1045 1085 868
f 883 887 899 900
f 1043 1046 1086 1083
f 1049 894 897 1089
f 905 910 889 891
f 869 874 907 909
f 954 1052 1054 961
f 961 1054 1055 956
f 956 1055 1053 952
f 1052 1056 1058 1054
f 1054 1058 1059 1055
f 1055 1059 1057 1053
f 1056 1061 1063 1058
f 1058 1063 1062 1059
f 1059 1062 1060 1057
f 930 1064 1066 937
f 937 1066 1067 932
f 932 1067 1065 928
f 1064 1068 1070 1066
f 1066 1070 1071 1067
f 1067 1071 1069 1065
f 1068 1073 1075 1070
f 1070 1075 1074 1071
f 1071 1074 1072 1069
f 1039 911 888 1079
f 1030 1050 1090 876
f 1028 1032 873 879
f 1048 1051 1091 1088
f 1042 1043 1083 1082
