# Blender 4.2.2 LTS
# www.blender.org
mtllib CowpeaFlower_senescent_highres.mtl
o petal
v 0.280155 0.055802 0.113965
v 0.280155 0.069712 -0.089480
v 0.280155 -0.055802 0.113965
v 0.280155 -0.069712 -0.089480
v 0.928300 0.011622 0.258508
v 0.928398 -0.011056 0.259530
v 0.457761 0.017399 0.151762
v 0.594573 0.015994 0.189249
v 0.844961 0.006011 0.320610
v 0.280155 -0.110242 0.006496
v 0.280155 0.106245 0.007732
v 0.381329 0.060617 -0.122263
v 0.939734 0.014202 0.194323
v 0.952922 0.020726 0.107968
v 0.862254 0.055814 0.027652
v 0.892518 0.063172 -0.072198
v 0.614376 0.078548 -0.169415
v 0.648770 0.073539 -0.184455
v 0.381856 -0.060715 -0.122330
v 0.935307 -0.036002 0.006543
v 0.838910 -0.087745 -0.038127
v 0.895582 -0.061907 -0.068556
v 0.890806 -0.064846 -0.014654
v 0.950654 -0.020068 0.122106
v 0.767803 -0.091257 -0.117611
v 0.792900 -0.092478 -0.108278
v 0.734071 0.077500 -0.162834
v 0.760462 0.087865 -0.085094
v 0.855712 0.080115 -0.096736
v 0.750364 0.092673 -0.114842
v 0.280161 0.012892 -0.116894
v 0.278809 0.000000 -0.121394
v 0.280161 -0.012892 -0.116894
v 0.495538 0.038265 0.150112
v 0.518556 0.020955 0.155246
v 0.319803 0.051712 0.145342
v 0.366883 0.044830 0.160832
v 0.412138 0.038085 0.159709
v 0.280155 -0.101369 0.039816
v 0.280155 -0.092496 0.072620
v 0.280155 -0.083623 0.103312
v 0.593517 -0.015593 0.187645
v 0.280155 0.098235 -0.023186
v 0.280155 0.081578 -0.053485
v 0.280155 0.060818 -0.084120
v 0.413001 -0.036781 0.159877
v 0.366147 -0.045725 0.161602
v 0.319803 -0.051712 0.145342
v 0.748446 0.000000 0.330893
v 0.727925 -0.004928 0.306146
v 0.717496 -0.007199 0.274997
v 0.699640 -0.011851 0.231823
v 0.280411 -0.032741 0.132519
v 0.280155 0.000000 0.146426
v 0.280411 0.032741 0.132519
v 0.709843 0.009859 0.250710
v 0.714304 0.010403 0.267231
v 0.725920 0.004056 0.302976
v 0.521188 -0.020590 0.154963
v 0.475321 -0.023187 0.146187
v 0.887812 0.010617 0.299223
v 0.884480 -0.009520 0.301926
v 0.907417 -0.009623 0.282319
v 0.644946 0.014891 0.204234
v 0.692094 0.013757 0.225104
v 0.458901 0.000492 0.155442
v 0.780025 0.004994 0.329442
v 0.794972 0.006158 0.324257
v 0.771118 -0.004740 0.330854
v 0.794548 -0.006282 0.324314
v 0.844990 -0.005955 0.320593
v 0.280155 -0.082574 -0.091200
v 0.280155 -0.092495 -0.059381
v 0.280155 -0.101369 -0.026813
v 0.280155 0.079392 0.106361
v 0.280155 0.090320 0.073139
v 0.280155 0.098371 0.039892
v 0.843802 0.075338 -0.036086
v 0.875200 0.058718 0.005152
v 0.884120 0.062084 -0.006276
v 0.886794 0.069557 -0.029492
v 0.873116 0.077217 -0.058855
v 0.861898 0.079013 -0.042131
v 0.920069 0.048508 -0.005673
v 0.909149 0.058438 -0.036029
v 0.939962 0.031821 0.016026
v 0.918110 0.049967 -0.034248
v 0.891073 0.068494 -0.062891
v 0.865283 0.071500 -0.101802
v 0.888759 0.070638 -0.045935
v 0.649383 0.096156 -0.135856
v 0.671147 0.096824 -0.145534
v 0.685471 0.094092 -0.161208
v 0.644530 0.091390 -0.160707
v 0.669784 0.090697 -0.172996
v 0.701801 0.075697 -0.181685
v 0.677812 0.075217 -0.185776
v 0.653893 0.084091 -0.180115
v 0.683919 0.085416 -0.180954
v 0.605615 0.065501 -0.174695
v 0.657680 -0.096129 -0.143735
v 0.648298 -0.091510 -0.162714
v 0.692231 -0.095107 -0.157493
v 0.616069 -0.078694 -0.170150
v 0.651788 -0.084061 -0.179442
v 0.602654 -0.064770 -0.174012
v 0.648523 -0.073828 -0.184506
v 0.695639 -0.076525 -0.183756
v 0.685673 -0.085559 -0.181187
v 0.733780 -0.077855 -0.162681
v 0.717812 -0.086725 -0.165364
v 0.874293 -0.074859 -0.079621
v 0.919550 -0.049035 -0.031280
v 0.908663 -0.058759 -0.037471
v 0.893080 -0.067406 -0.061041
v 0.862643 -0.078216 -0.030680
v 0.887418 -0.071531 -0.046373
v 0.763359 -0.078788 -0.136206
v 0.780488 -0.086678 -0.122735
v 0.757163 -0.087899 -0.132201
v 0.790647 -0.078727 -0.126460
v 0.833083 -0.075863 -0.119650
v 0.826783 -0.083418 -0.114418
v 0.864703 -0.071698 -0.102490
v 0.847980 -0.081825 -0.102247
v 0.785236 -0.093330 -0.102292
v 0.769291 -0.097249 -0.100054
v 0.762703 -0.101582 -0.090737
v 0.784148 -0.093410 -0.110364
v 0.833177 0.075810 -0.119702
v 0.830113 0.083251 -0.113138
v 0.785419 0.078864 -0.127430
v 0.761625 0.078999 -0.137414
v 0.763111 0.087754 -0.128501
v 0.762016 0.090687 -0.121436
v 0.776274 0.090458 -0.092891
v 0.810834 0.091352 -0.095450
v 0.839994 0.086631 -0.093013
v 0.787457 0.088018 -0.119126
v 0.596684 -0.089351 -0.126196
v 0.536140 -0.073101 -0.118076
v 0.474199 -0.061763 -0.116896
v 0.424862 -0.059115 -0.127749
v 0.488991 -0.054083 -0.135521
v 0.571293 -0.058457 -0.162646
v 0.395466 0.000000 -0.128303
v 0.408262 0.030222 -0.126948
v 0.467452 0.057412 -0.131741
v 0.480854 0.026830 -0.135784
v 0.484884 -0.027560 -0.136576
v 0.585759 0.041330 -0.169138
v 0.538717 -0.000394 -0.116407
v 0.553062 -0.034730 -0.157485
v 0.588273 -0.041614 -0.170189
v 0.474199 0.061763 -0.116896
v 0.536140 0.073101 -0.118076
v 0.595215 0.088091 -0.126795
v 0.597385 0.084509 -0.146206
v 0.508631 0.057660 -0.138270
v 0.533736 0.057407 -0.148200
v 0.730725 0.058646 -0.166790
v 0.738070 -0.060194 -0.160693
v 0.704052 -0.056513 -0.182498
v 0.703618 -0.000059 -0.147324
v 0.692199 0.056211 -0.186168
v 0.653513 -0.054559 -0.186318
v 0.651676 0.000114 -0.147513
v 0.645758 0.052486 -0.184712
v 0.697278 -0.102717 -0.120433
v 0.735786 -0.098758 -0.123371
v 0.796037 0.077404 -0.053639
v 0.855501 0.081656 -0.070591
v 0.824164 0.089950 -0.090404
v 0.920321 0.000120 -0.003152
v 0.923986 -0.031624 -0.021683
v 0.916722 -0.001071 0.001719
v 0.922669 0.033284 -0.024471
v 0.897859 0.000781 -0.027946
v 0.893941 0.050033 -0.070099
v 0.938545 -0.013488 0.202953
v 0.914529 -0.021037 0.143759
v 0.891094 -0.037563 0.087428
v 0.868699 -0.061534 0.030555
v 0.912463 -0.034625 0.064807
v 0.936498 -0.030184 0.045397
v 0.945116 -0.023632 0.074427
v 0.946222 -0.023944 0.046491
v 0.891094 0.037563 0.087428
v 0.914529 0.021037 0.143759
v 0.930728 0.023758 0.104076
v 0.917523 0.033935 0.061650
v 0.945079 0.023664 0.073728
v 0.936189 0.030218 0.046453
v 0.956511 0.018975 0.086381
v 0.947929 0.022792 0.055296
v 0.830697 -0.094548 -0.052702
v 0.806469 -0.096313 -0.060773
v 0.797016 -0.098125 -0.071135
v 0.838507 -0.090667 -0.075360
v 0.692780 0.099688 -0.128520
v 0.709622 0.101413 -0.113705
v 0.732309 0.087010 -0.072013
v 0.735400 0.098063 -0.123173
v 0.716992 0.096553 -0.141466
v 0.719194 0.086694 -0.164349
v 0.863883 0.058689 -0.103245
v 0.867247 0.000132 -0.060695
v 0.867765 -0.056964 -0.099574
v 0.840139 -0.062155 -0.118538
v 0.816628 -0.002089 -0.095598
v 0.829478 0.063181 -0.121038
v 0.765430 -0.061825 -0.137528
v 0.796579 -0.016411 -0.106607
v 0.766011 0.061337 -0.137360
v 0.749292 -0.012392 -0.128408
v 0.333420 0.064698 -0.117030
v 0.304957 0.054012 -0.115673
v 0.934265 0.013361 0.230572
v 0.333420 -0.064698 -0.117030
v 0.304957 -0.054012 -0.115673
v 0.956532 -0.019028 0.086424
v 0.934738 -0.013064 0.226175
v 0.413695 0.000000 0.170523
v 0.367128 0.000563 0.167560
v 0.319252 0.000000 0.150580
v 0.934753 0.000000 0.039264
v 0.945352 0.012897 0.045539
v 0.642747 0.046711 0.106537
v 0.386926 0.072108 -0.036881
v 0.483724 0.069775 0.044155
v 0.370188 0.085350 0.039179
v 0.482883 0.068592 0.100944
v 0.394010 0.065533 0.127698
v 0.516545 0.051894 0.130810
v 0.580428 0.037771 0.136003
v 0.639603 0.028657 0.166759
v 0.687810 0.024066 0.198957
v 0.697813 0.037240 0.181436
v 0.739764 0.015694 0.246673
v 0.735703 0.045651 0.202273
v 0.793319 0.017718 0.256964
v 0.766131 0.058184 0.197226
v 0.847602 0.022776 0.229620
v 0.782341 0.060550 0.170380
v 0.854109 0.031940 0.162488
v 0.762611 0.050519 0.111112
v 0.797675 0.057052 0.030469
v 0.717430 0.050320 0.041348
v 0.666241 0.074859 0.008182
v 0.633901 0.075894 -0.065048
v 0.584986 0.048006 0.001940
v 0.485391 0.060734 -0.053941
v 0.509666 0.059770 0.011642
v 0.333317 0.021209 -0.111833
v 0.344047 0.000000 -0.119295
v 0.333317 -0.021209 -0.111833
v 0.668396 -0.014809 0.211446
v 0.521575 -0.000127 0.159051
v 0.489689 0.000095 0.153478
v 0.588244 0.000875 0.187404
v 0.642422 -0.057588 0.102740
v 0.485399 -0.064245 -0.069237
v 0.584986 -0.061094 -0.004867
v 0.633901 -0.096395 -0.072199
v 0.666241 -0.078217 0.006550
v 0.730858 -0.088550 -0.040683
v 0.716963 -0.073789 0.040869
v 0.797675 -0.061881 0.030412
v 0.762098 -0.063448 0.109826
v 0.854360 -0.054591 0.162394
v 0.783387 -0.055816 0.167897
v 0.847886 -0.032235 0.229559
v 0.768727 -0.059264 0.192851
v 0.793948 -0.019468 0.256028
v 0.739552 -0.051233 0.196194
v 0.741923 -0.016195 0.244604
v 0.700503 -0.045451 0.174399
v 0.691811 -0.026922 0.193615
v 0.640386 -0.044354 0.144242
v 0.595868 -0.027800 0.158296
v 0.581336 -0.042996 0.130173
v 0.548232 -0.063675 0.099751
v 0.393450 -0.067701 0.126563
v 0.370253 -0.087432 0.032315
v 0.483749 -0.072199 0.035826
v 0.387051 -0.072636 -0.049698
v 0.509666 -0.068081 0.002261
v 0.859962 0.068470 -0.031254
v 0.878597 0.073074 -0.030245
v 0.699985 0.086137 -0.175136
v 0.672039 -0.090542 -0.173344
v 0.918401 -0.050103 -0.011451
v 0.871092 -0.077909 -0.035828
v 0.774569 0.089805 -0.117532
v 0.763064 0.090721 -0.106810
v 0.813461 0.090120 -0.103118
v 0.598682 -0.084738 -0.146628
v 0.526272 -0.064905 -0.133877
v 0.488797 -0.060149 -0.124447
v 0.523585 -0.054783 -0.145848
v 0.414436 -0.029934 -0.127782
v 0.414341 0.000000 -0.091789
v 0.483742 -0.000445 -0.101455
v 0.494531 0.060371 -0.126698
v 0.535875 0.069557 -0.131144
v 0.725537 -0.004445 -0.138020
v 0.608914 0.000849 -0.138537
v 0.716576 -0.103132 -0.114812
v 0.814702 0.088912 -0.072487
v 0.831837 0.082120 -0.061905
v 0.825403 0.086660 -0.075247
v 0.908903 0.044959 -0.047794
v 0.907219 -0.044443 -0.051526
v 0.901947 0.000000 0.002457
v 0.929999 -0.024037 0.102291
v 0.893577 0.046862 0.025036
v 0.815649 -0.097429 -0.065166
v 0.809651 -0.096443 -0.083489
v 0.736158 0.093159 -0.113773
v 0.719233 0.098986 -0.126297
v 0.787437 0.057225 -0.129499
v 0.794223 -0.063164 -0.127451
s 0
usemtl Material
f 224 46 223
f 55 54 225
f 54 53 225
f 46 60 66
f 49 58 50
f 227 195 187
f 174 86 226
f 86 195 227
f 195 194 221
f 67 49 69
f 9 68 71
f 240 238 239
f 242 240 241
f 246 244 245
f 2 229 217
f 44 229 45
f 7 34 38
f 8 236 35
f 64 236 8
f 202 171 28
f 12 252 155
f 222 180 6
f 217 31 2
f 216 12 254
f 19 219 256
f 33 220 4
f 260 257 64
f 65 257 52
f 65 64 257
f 35 258 260
f 8 35 260
f 34 7 259
f 66 60 259
f 60 59 258
f 258 59 260
f 273 271 272
f 275 273 274
f 277 275 276
f 9 62 61
f 5 63 6
f 289 83 288
f 289 90 82
f 289 81 90
f 84 85 81
f 81 85 90
f 87 84 86
f 88 85 87
f 89 88 16
f 29 82 88
f 290 99 95
f 96 290 27
f 290 205 27
f 97 98 99
f 97 99 96
f 98 18 100
f 94 98 17
f 107 104 106
f 124 115 112
f 23 117 292
f 117 114 292
f 21 293 116
f 293 117 23
f 115 114 117
f 121 123 119
f 121 119 118
f 123 122 124
f 26 129 123
f 25 119 129
f 129 119 123
f 131 29 89
f 130 131 89
f 132 139 130
f 139 131 130
f 134 139 133
f 294 139 134
f 28 136 295
f 137 294 295
f 295 294 135
f 138 131 296
f 297 102 101
f 146 301 143
f 146 147 302
f 150 144 143
f 224 223 38 37
f 160 151 149
f 144 150 300
f 153 152 154
f 300 153 145
f 151 307 152
f 157 305 156
f 157 91 158
f 305 159 304
f 304 159 148
f 304 148 12
f 305 160 159
f 305 17 160
f 158 94 17
f 306 163 164
f 162 110 163
f 164 166 167
f 165 97 96
f 163 108 166
f 167 168 165
f 307 151 168
f 167 166 307
f 166 106 154
f 168 100 18
f 170 25 127
f 308 127 128
f 103 111 170
f 309 310 311
f 311 137 309
f 310 83 172
f 311 173 137
f 309 137 136
f 172 138 173
f 173 296 137
f 172 82 138
f 82 29 138
f 138 29 131
f 173 138 296
f 86 174 177
f 174 175 176
f 86 177 87
f 313 314 176
f 313 178 314
f 177 176 312
f 113 313 175
f 312 178 179
f 179 178 206
f 208 207 178
f 116 293 184
f 315 24 180
f 184 186 315
f 185 20 187
f 186 221 24
f 316 190 191
f 189 13 190
f 316 80 79
f 191 192 193
f 190 14 192
f 195 86 193
f 192 195 193
f 192 194 195
f 317 318 199
f 197 198 317
f 293 196 117
f 196 293 21
f 117 199 112
f 199 125 112
f 112 125 124
f 201 319 320
f 200 320 204
f 200 92 91
f 319 30 203
f 320 203 204
f 93 204 290
f 203 135 204
f 290 204 205
f 209 210 207
f 124 209 208
f 206 210 211
f 89 206 130
f 211 210 321
f 322 213 210
f 321 213 214
f 213 212 215
f 215 27 214
f 132 214 133
f 212 118 162
f 215 161 27
f 145 154 106
f 225 224 37 55
f 47 224 53 48
f 225 53 224
f 37 36 55
f 36 1 55
f 53 3 48
f 223 66 7 38
f 224 47 46
f 223 46 66
f 51 57 56 52
f 56 65 52
f 50 58 57 51
f 187 175 174 226
f 226 227 187
f 226 86 227
f 175 187 20
f 69 70 68 67
f 187 195 221
f 253 229 230 228
f 71 68 70
f 230 231 232 228
f 232 233 234 228
f 234 34 235 228
f 236 237 238 228
f 236 228 235
f 242 243 244 228
f 240 228 238
f 242 228 240
f 246 247 248 228
f 246 228 244
f 248 202 249 228
f 249 250 251 228
f 251 252 253 228
f 253 216 217 229
f 2 45 229
f 44 230 229
f 43 11 77 231
f 231 77 76 232
f 44 43 231 230
f 233 75 1 36
f 233 36 37 234
f 76 75 233 232
f 234 37 38 34
f 35 235 34
f 238 237 56 57
f 236 235 35
f 65 56 237
f 64 65 237 236
f 58 49 67 239
f 239 67 68 240
f 57 58 239 238
f 68 9 61 241
f 243 61 5 218
f 61 242 241
f 241 240 68
f 245 218 13 189
f 218 244 243
f 243 242 61
f 245 189 188 246
f 248 247 78 171
f 245 244 218
f 15 78 247
f 246 188 15 247
f 250 200 91 157
f 202 201 249
f 202 248 171
f 250 157 156 251
f 201 200 250 249
f 252 12 216 253
f 156 155 252 251
f 255 32 31 254
f 24 13 180
f 14 13 24
f 14 24 221
f 194 14 221
f 13 218 180
f 5 180 218
f 6 180 5
f 33 32 255 256
f 254 12 255
f 254 31 217 216
f 255 19 256
f 146 255 12 147
f 19 255 146 143
f 220 33 256 219
f 259 258 35 34
f 64 8 260
f 260 42 257
f 259 60 258
f 287 262 263 261
f 259 7 66
f 260 59 42
f 263 264 265 261
f 265 266 267 261
f 267 268 269 261
f 269 270 271 261
f 277 278 279 261
f 273 261 271
f 275 261 273
f 277 261 275
f 279 280 281 261
f 282 284 285 261
f 282 261 281
f 285 286 287 261
f 262 142 141 263
f 19 142 262
f 219 19 262 287
f 264 140 101 169
f 264 169 308 265
f 141 140 264 263
f 266 198 197 267
f 128 198 266
f 308 128 266 265
f 268 196 21 183
f 268 183 182 269
f 267 197 196 268
f 270 181 180 222
f 182 181 270 269
f 222 271 270
f 272 63 62 273
f 6 63 272
f 222 6 272 271
f 62 71 70 274
f 69 49 50 276
f 70 275 274
f 274 273 62
f 276 50 51 277
f 70 69 276 275
f 277 51 52 278
f 52 257 278
f 257 279 278
f 257 42 280 279
f 42 59 280
f 59 281 280
f 59 60 282 281
f 60 46 282
f 46 47 282
f 283 48 3 41
f 283 41 40 282
f 47 48 283 282
f 39 10 74 284
f 284 74 73 285
f 40 39 284 282
f 286 72 4 220
f 287 286 220 219
f 73 72 286 285
f 288 78 15 79
f 61 63 5
f 62 9 71
f 63 61 62
f 83 289 82
f 81 289 80 191
f 79 289 288
f 79 80 289
f 95 94 92 93
f 78 288 83
f 87 85 84
f 16 88 87
f 29 88 89
f 88 82 90
f 88 90 85
f 108 110 111 109
f 91 92 94
f 290 95 93
f 96 99 290
f 97 18 98
f 17 98 100
f 94 95 98
f 95 99 98
f 101 102 103
f 103 102 291
f 102 104 105
f 102 105 291
f 107 105 104
f 108 109 107
f 107 109 105
f 109 111 103 291
f 114 115 22 113
f 291 105 109
f 124 22 115
f 139 294 137 296
f 292 114 113
f 20 292 113
f 112 115 117
f 118 119 120
f 121 122 123
f 125 123 124
f 127 25 126
f 126 25 129
f 126 129 26
f 25 120 119
f 133 139 132
f 135 294 134
f 136 137 295
f 30 295 135
f 296 131 139
f 297 140 141 298
f 298 299 144
f 140 297 101
f 299 298 141 142
f 143 299 142 19
f 104 297 298 300
f 299 143 144
f 297 104 102
f 150 301 302 303
f 298 144 300
f 300 145 104
f 104 145 106
f 149 303 302 147
f 148 149 147 12
f 146 302 301
f 152 303 149 151
f 149 148 159
f 301 150 143
f 159 160 149
f 152 153 150 303
f 304 155 156 305
f 300 150 153
f 160 100 151
f 154 152 307
f 145 153 154
f 305 157 158
f 155 304 12
f 165 161 306 164
f 158 91 94
f 305 158 17
f 17 100 160
f 306 215 162 163
f 215 306 161
f 96 27 161 165
f 163 110 108
f 18 97 165 168
f 164 163 166
f 164 167 165
f 166 108 107
f 170 308 169 103
f 167 307 168
f 166 107 106
f 307 166 154
f 168 151 100
f 169 101 103
f 118 120 111 110
f 308 170 127
f 170 111 120
f 170 120 25
f 309 136 28 171
f 310 309 171 78
f 172 173 311 310
f 310 78 83
f 179 16 87 312
f 172 83 82
f 20 113 175
f 177 174 176
f 312 176 314
f 312 314 178
f 87 177 312
f 175 313 176
f 113 22 313
f 208 313 22 124
f 313 208 178
f 206 89 16 179
f 206 178 207
f 315 181 182 184
f 181 315 180
f 116 184 182 183
f 79 15 188 316
f 183 21 116
f 184 293 23
f 184 23 292
f 184 292 185
f 184 185 186
f 315 186 24
f 186 185 187
f 185 292 20
f 186 187 221
f 190 316 188 189
f 127 318 198 128
f 190 13 14
f 80 316 191
f 191 190 192
f 191 193 84
f 191 84 81
f 192 14 194
f 193 86 84
f 317 198 318
f 196 317 199
f 197 317 196
f 123 125 318 26
f 318 127 126
f 318 126 26
f 117 196 199
f 199 318 125
f 295 319 202 28
f 200 201 320
f 320 319 203
f 201 202 319
f 93 92 200 204
f 319 295 30
f 134 205 204 135
f 203 30 135
f 322 209 122 121
f 205 133 27
f 205 134 133
f 206 207 210
f 208 209 207
f 124 122 209
f 130 206 211
f 209 322 210
f 210 213 321
f 212 322 121 118
f 321 132 130 211
f 213 322 212
f 321 214 132
f 214 213 215
f 212 162 215
f 162 118 110
f 214 27 133
o sepal
v 0.134261 0.102469 0.004839
v 0.281664 0.111460 0.004839
v 0.134261 0.082899 -0.076217
v 0.401626 0.115498 -0.053273
v 0.134261 0.031665 -0.126312
v 0.292893 0.034443 -0.137819
v 0.134261 -0.031665 -0.126312
v 0.417269 -0.063866 -0.178775
v 0.134261 -0.082899 -0.076217
v 0.278936 -0.090173 -0.083329
v 0.134261 -0.102469 0.004839
v 0.418537 -0.111460 0.004839
v 0.134261 -0.082899 0.085895
v 0.278936 -0.090173 0.093007
v 0.134261 -0.031665 0.135990
v 0.362989 -0.034443 0.190587
v 0.134261 0.031665 0.135990
v 0.278936 0.034443 0.147497
v 0.134261 0.082899 0.085895
v 0.383806 0.106229 0.120413
v 0.067666 0.080758 0.004839
v 0.067666 0.065334 -0.059042
v 0.067666 0.024955 -0.098523
v 0.067666 -0.024955 -0.098523
v 0.067666 -0.065334 -0.059042
v 0.067666 -0.080758 0.004839
v 0.067666 -0.065334 0.068720
v 0.067666 -0.024955 0.108201
v 0.067666 0.024955 0.108201
v 0.067666 0.065334 0.068720
v 0.024636 0.036847 0.004839
v 0.024636 0.029810 -0.024308
v 0.024636 0.011386 -0.042321
v 0.024636 -0.011386 -0.042321
v 0.024636 -0.029810 -0.024308
v 0.024636 -0.036847 0.004839
v 0.024636 -0.029810 0.033986
v 0.024636 -0.011386 0.051999
v 0.024636 0.011386 0.051999
v 0.024636 0.029810 0.033986
v 0.216585 0.034443 0.147497
v 0.216585 -0.034443 0.147497
v 0.216585 -0.090173 0.093007
v 0.216585 -0.111460 0.004839
v 0.216585 -0.090173 -0.083329
v 0.216585 -0.034443 -0.137819
v 0.003123 -0.000000 0.004839
v 0.216586 0.034443 -0.137819
v 0.252291 0.090173 -0.083329
v 0.216585 0.111460 0.004839
v 0.216585 0.090173 0.093007
s 0
usemtl Material.001
f 372 324 326 371
f 371 326 328 370
f 370 328 330 368
f 368 330 332 367
f 367 332 334 366
f 366 334 336 365
f 365 336 338 364
f 364 338 340 363
f 363 340 342 373
f 373 342 324 372
f 333 335 349 348
f 331 333 348 347
f 329 331 347 346
f 323 325 344 343
f 327 329 346 345
f 325 327 345 344
f 341 323 343 352
f 339 341 352 351
f 337 339 351 350
f 335 337 350 349
f 346 347 357 356
f 343 344 354 353
f 350 351 361 360
f 347 348 358 357
f 344 345 355 354
f 351 352 362 361
f 348 349 359 358
f 345 346 356 355
f 352 343 353 362
f 349 350 360 359
f 353 354 369
f 360 361 369
f 357 358 369
f 354 355 369
f 361 362 369
f 358 359 369
f 355 356 369
f 362 353 369
f 359 360 369
f 356 357 369
f 341 373 372 323
f 339 363 373 341
f 337 364 363 339
f 335 365 364 337
f 333 366 365 335
f 331 367 366 333
f 329 368 367 331
f 327 370 368 329
f 325 371 370 327
f 323 372 371 325
